<svg width="90" height="33" viewBox="0 0 90 33" fill="none" xmlns="http://www.w3.org/2000/svg">
<path d="M24.4769 31.1038C24.2555 31.305 24.0103 31.4788 23.7466 31.6213C23.415 31.7549 23.061 31.8252 22.7032 31.8283C22.294 31.831 21.8876 31.7609 21.5033 31.6213C21.0773 31.4798 20.6861 31.2505 20.3556 30.9486C19.9914 30.6185 19.7062 30.2118 19.5209 29.7583C19.2983 29.1807 19.192 28.5653 19.2079 27.9471V26.6534C19.2079 25.7736 18.9993 25.1526 18.5297 24.8422C17.9281 24.5005 17.2396 24.3388 16.5474 24.3764V23.8589C16.9322 23.8575 17.3162 23.8228 17.6951 23.7554C17.8345 23.7286 17.9667 23.6734 18.0835 23.5932C18.2002 23.5131 18.2989 23.4097 18.3732 23.2897C18.5553 23.0104 18.663 22.6899 18.6863 22.3582C18.7582 21.8438 18.793 21.325 18.7906 20.8057C18.7891 20.2866 18.7542 19.768 18.6863 19.2532C18.663 18.9215 18.5553 18.601 18.3732 18.3218C18.2029 18.0989 17.9653 17.9357 17.6951 17.856C17.3415 17.7425 16.971 17.69 16.5995 17.7008L17.069 17.235C17.7213 17.2341 18.3706 17.3212 18.9993 17.4938C19.5286 17.6398 20.0246 17.8858 20.46 18.2183C20.8409 18.5168 21.1598 18.8859 21.399 19.305C21.6067 19.7235 21.7139 20.184 21.712 20.6505C21.7061 21.094 21.6176 21.5326 21.4512 21.9442C21.3011 22.3455 21.0496 22.7019 20.7208 22.9792C20.3983 23.2788 20.0281 23.5235 19.6253 23.7037C19.1144 23.9256 18.5655 24.0485 18.0081 24.0659C18.631 24.0548 19.2504 24.1601 19.834 24.3764C20.317 24.5647 20.7467 24.8666 21.086 25.2561C21.4082 25.6193 21.6563 26.0411 21.8163 26.4981C21.962 26.9495 22.0325 27.4215 22.025 27.8954V29.7583C21.9842 30.1471 22.0963 30.5364 22.338 30.8451C22.5649 31.0524 22.8643 31.1638 23.1727 31.1556C23.3656 31.1724 23.5599 31.1549 23.7466 31.1038C23.8924 31.0321 24.018 30.9254 24.1117 30.7933C24.2161 30.8451 24.2682 30.8968 24.2682 30.9486C24.3204 31.0003 24.3204 31.0521 24.3726 31.0521C24.4769 31.0521 24.4769 31.1038 24.4769 31.1038ZM32.4065 31.3625C32.0668 31.5329 31.6915 31.6215 31.3109 31.6213C31.0817 31.6122 30.8542 31.5775 30.6327 31.5178C30.4154 31.4538 30.2055 31.3671 30.0067 31.259C29.8168 31.1636 29.655 31.021 29.5372 30.8451C29.4196 30.6895 29.3313 30.5142 29.2764 30.3276C29.1441 30.7238 28.8883 31.0681 28.546 31.3108C28.1657 31.5757 27.7055 31.7036 27.2418 31.673C26.8746 31.6642 26.5085 31.6296 26.1463 31.5695C25.7981 31.5036 25.4632 31.3812 25.1551 31.2073C24.867 31.0584 24.6171 30.846 24.4247 30.5863C24.2297 30.2966 24.1379 29.9505 24.1639 29.6031C24.1409 29.1439 24.2691 28.6899 24.5291 28.3093C24.7543 27.9997 25.0377 27.7361 25.3638 27.5331C25.6719 27.3592 26.0068 27.2368 26.355 27.1709C26.668 27.1191 26.981 27.0674 27.1897 27.0156C27.7635 26.9639 28.2852 26.9121 28.7025 26.8604C29.1199 26.8086 29.3285 26.6534 29.3285 26.4464V24.9456C29.3321 24.6321 29.297 24.3193 29.2242 24.0142C29.1813 23.8384 29.0911 23.6774 28.9634 23.5484C28.8417 23.4492 28.699 23.3785 28.546 23.3414C28.3895 23.3414 28.233 23.2897 28.0243 23.2897H27.607C27.4828 23.2775 27.3576 23.2952 27.2418 23.3414C27.1375 23.3932 27.0853 23.4449 26.981 23.4967C26.9091 23.6228 26.8731 23.7659 26.8766 23.9107C26.8806 24.0712 26.916 24.2294 26.981 24.3764C27.0461 24.5051 27.0818 24.6465 27.0853 24.7904C27.0908 24.8943 27.0751 24.9983 27.0393 25.096C27.0034 25.1938 26.9481 25.2835 26.8766 25.3596C26.6606 25.5452 26.3792 25.6382 26.0941 25.6184C25.9482 25.6326 25.8009 25.6118 25.6647 25.5578C25.5285 25.5037 25.4074 25.418 25.3116 25.3079C25.1503 25.1195 25.0583 24.8823 25.0508 24.6352C25.0477 24.4107 25.1212 24.1919 25.2594 24.0142C25.4293 23.7863 25.6419 23.593 25.8855 23.4449C26.1787 23.2666 26.4945 23.1274 26.8245 23.0309C27.2147 22.9218 27.6189 22.8695 28.0243 22.8757C28.9748 22.8306 29.907 23.145 30.6327 23.7554C31.3109 24.3247 31.6239 25.2561 31.6239 26.4981V30.3793C31.6239 30.8451 31.7804 31.0521 32.0934 31.0521C32.2386 31.0485 32.3811 31.0132 32.5108 30.9486C32.6071 30.8873 32.6804 30.7964 32.7195 30.6898H32.7716L32.876 30.7933L32.9803 30.8968L33.0325 30.9486C32.842 31.1118 32.6317 31.2509 32.4065 31.3625ZM29.2764 27.0156C29.0438 27.1703 28.7734 27.2597 28.4939 27.2744C28.233 27.3261 27.92 27.3261 27.607 27.3779C27.4456 27.4136 27.2882 27.4656 27.1375 27.5331C27.0208 27.6036 26.9154 27.6907 26.8245 27.7919C26.7048 27.9761 26.6497 28.1944 26.668 28.4128C26.619 28.7729 26.6016 29.1365 26.6158 29.4996V30.1206C26.6135 30.2818 26.6493 30.4412 26.7201 30.5863C26.7426 30.6596 26.7828 30.7263 26.8374 30.7804C26.892 30.8346 26.9593 30.8746 27.0331 30.8968C27.2276 30.9899 27.4448 31.0259 27.6592 31.0003C27.8949 31.0064 28.1275 30.9465 28.3305 30.8276C28.5335 30.7086 28.6986 30.5353 28.8069 30.3276C29.1322 29.837 29.2963 29.2585 29.2764 28.6716V27.0156ZM38.9275 31.466H33.8672L33.815 31.4143V31.1038C33.815 31.0521 33.815 31.0521 33.8672 31.0521H35.067C35.1714 31.0521 35.2235 31.0003 35.2235 30.9486V23.4449C35.2235 23.3932 35.1714 23.3414 35.067 23.3414H33.8672L33.815 23.2897V22.9792C33.815 22.9274 33.815 22.9274 33.8672 22.9274H37.5189C37.5711 22.9274 37.6233 22.9274 37.6233 22.9792V30.8968C37.6233 30.9486 37.6754 31.0003 37.7798 31.0003H38.9796V31.3625C38.9796 31.4143 38.9796 31.466 38.9275 31.466ZM36.4756 19.7707C36.0722 19.7674 35.6834 19.6205 35.38 19.3567C35.1154 19.0756 34.9665 18.7064 34.9627 18.3218C34.9661 17.9216 35.1142 17.536 35.38 17.235C35.5144 17.0792 35.6831 16.9562 35.8731 16.8755C36.063 16.7947 36.2692 16.7584 36.4756 16.7693C36.6652 16.7695 36.8524 16.8114 37.0238 16.892C37.1951 16.9725 37.3464 17.0896 37.4668 17.235C37.7326 17.536 37.8807 17.9216 37.8841 18.3218C37.8803 18.7064 37.7314 19.0756 37.4668 19.3567C37.2035 19.6178 36.8478 19.7664 36.4756 19.7707ZM51.2391 31.3625L46.1788 31.4143L46.1267 31.3625V31.0521C46.1267 31.0003 46.1267 31.0003 46.1788 31.0003H47.3265C47.3536 30.9985 47.3791 30.987 47.3983 30.968C47.4175 30.9489 47.429 30.9237 47.4309 30.8968V25.2561C47.4587 24.726 47.3697 24.1962 47.17 23.7037C47.0858 23.5589 46.9639 23.4393 46.817 23.3573C46.6702 23.2754 46.5038 23.2341 46.3353 23.2379C45.7922 23.2173 45.2584 23.3816 44.8225 23.7037C44.3712 24.1461 44.0471 24.6998 43.8834 25.3079V30.8968C43.8853 30.9237 43.8968 30.9489 43.916 30.968C43.9352 30.987 43.9607 30.9985 43.9878 31.0003H45.1876V31.4143H40.1273L40.0752 31.3625V31.0521C40.0752 31.0003 40.0752 31.0003 40.1273 31.0003H41.275C41.3794 31.0003 41.4315 30.9486 41.4315 30.8968V23.4449C41.4315 23.3932 41.3794 23.3414 41.275 23.3414H40.1273L40.0752 23.2897V22.9792C40.0752 22.9274 40.0752 22.9274 40.1273 22.9274H43.7791C43.8313 22.9274 43.8313 22.9274 43.8313 22.9792V24.3247C43.9183 24.0571 44.0604 23.8104 44.2486 23.6002C44.4013 23.4033 44.5977 23.2439 44.8225 23.1344C45.0392 23.0258 45.2664 22.9392 45.5006 22.8757C45.7398 22.8159 45.9846 22.7812 46.231 22.7722C47.1814 22.7271 48.1136 23.0415 48.8394 23.6519C49.1658 23.9753 49.4185 24.3644 49.5805 24.7929C49.7425 25.2214 49.81 25.6793 49.7784 26.1359V30.9486C49.7784 31.0003 49.8306 31.0521 49.9349 31.0521H51.0826L51.1348 31.1038V31.259C51.2391 31.3108 51.2391 31.3108 51.2391 31.3625ZM61.8293 28.8786C61.6339 29.3884 61.3515 29.861 60.9946 30.2758C60.6305 30.6868 60.187 31.0212 59.6904 31.259C59.1718 31.5123 58.5988 31.6367 58.021 31.6213C57.5682 31.6171 57.1222 31.5109 56.7168 31.3108C56.3254 31.1379 55.9711 30.892 55.6734 30.5863V31.3625C55.6734 31.4143 55.6734 31.4143 55.6213 31.4143H51.9695L51.9173 31.3625V31.0521C51.9173 31.0003 51.9173 30.9486 51.9695 30.9486H53.2215C53.3259 30.9486 53.3259 30.8968 53.3259 30.8451V17.2868C53.324 17.2599 53.3124 17.2346 53.2933 17.2156C53.2741 17.1966 53.2486 17.1851 53.2215 17.1833H51.9695L51.9173 17.1315V16.821C51.9173 16.7693 51.9173 16.7175 51.9695 16.7175H55.6213C55.6734 16.7175 55.6734 16.7175 55.6734 16.7693V23.5484C55.9205 23.2723 56.2269 23.0546 56.5699 22.9113C56.913 22.7681 57.284 22.7028 57.6558 22.7204C58.2545 22.7224 58.8442 22.8643 59.3774 23.1344C59.8997 23.4023 60.3753 23.7518 60.7859 24.1694C61.1933 24.5853 61.5126 25.078 61.7249 25.6184C61.9749 26.1347 62.0999 26.7017 62.0901 27.2744C62.1275 27.8218 62.0383 28.3705 61.8293 28.8786ZM59.4817 24.9456C59.4539 24.4599 59.2501 24.0004 58.9078 23.6519C58.7592 23.5115 58.581 23.4054 58.3862 23.3414C58.1486 23.2742 57.9029 23.2394 57.6558 23.2379C57.4441 23.2513 57.2344 23.2859 57.0298 23.3414C56.8211 23.3932 56.6124 23.4967 56.4038 23.5484C56.2176 23.6257 56.0556 23.7507 55.9343 23.9107C55.7971 24.0534 55.7062 24.2337 55.6734 24.4282V29.7583C55.8912 30.2246 56.2579 30.6065 56.7168 30.8451C57.1398 31.0549 57.6011 31.1781 58.0732 31.2073H58.3862C58.4383 31.2073 58.5427 31.1556 58.5948 31.1556C58.647 31.1038 58.6992 31.1038 58.7513 31.0521L58.96 30.8451C59.2727 30.4976 59.4726 30.0648 59.5339 29.6031C59.6532 28.8501 59.7056 28.0882 59.6904 27.3261C59.663 26.5295 59.5934 25.7349 59.4817 24.9456ZM72.5237 28.9303C72.2855 29.4541 71.9491 29.9283 71.5325 30.3276C71.1322 30.7303 70.6528 31.0474 70.124 31.259C69.5851 31.5073 68.9965 31.6312 68.4024 31.6213C67.8078 31.6366 67.218 31.5125 66.6809 31.259C66.1732 31.0096 65.6998 30.6965 65.2723 30.3276C64.8663 29.9304 64.5467 29.4549 64.3333 28.9303C64.0831 28.3958 63.9582 27.8119 63.9681 27.2226C63.9527 26.6328 64.0778 26.0477 64.3333 25.5149C64.5722 25.0041 64.8889 24.5328 65.2723 24.1177C65.6727 23.7149 66.1521 23.3979 66.6809 23.1862C67.2229 22.9474 67.8094 22.824 68.4024 22.824C68.9955 22.824 69.582 22.9474 70.124 23.1862C70.6389 23.4231 71.114 23.7373 71.5325 24.1177C71.9376 24.5266 72.2724 24.9986 72.5237 25.5149C72.774 26.0494 72.8988 26.6333 72.8889 27.2226C72.8426 27.8052 72.7198 28.3793 72.5237 28.9303ZM70.1761 24.8939C70.1149 24.4321 69.9149 23.9994 69.6023 23.6519C69.4453 23.4846 69.2477 23.3599 69.0284 23.2897C68.5693 23.1515 68.0791 23.1515 67.6199 23.2897C67.3915 23.3395 67.1883 23.4678 67.0461 23.6519C66.7518 24.0054 66.5703 24.4377 66.5244 24.8939C66.4071 25.6471 66.3548 26.4088 66.3679 27.1709C66.355 27.6372 66.3724 28.1039 66.42 28.5681C66.4722 28.9303 66.4722 29.2926 66.5244 29.5513C66.5546 29.7858 66.6252 30.0133 66.7331 30.2241C66.8251 30.3871 66.9298 30.5428 67.0461 30.6898C67.2031 30.8571 67.4006 30.9818 67.6199 31.0521C67.8405 31.1156 68.0685 31.1504 68.2981 31.1556C68.5448 31.1502 68.7901 31.1155 69.0284 31.0521C69.2568 31.0022 69.4601 30.8739 69.6023 30.6898C69.7416 30.5607 69.8487 30.4012 69.9153 30.2241C70.0231 30.0133 70.0937 29.7858 70.124 29.5513C70.1761 29.2926 70.2283 28.9303 70.2805 28.5681C70.3281 28.1039 70.3456 27.6372 70.3326 27.1709C70.3458 26.4088 70.2934 25.6471 70.1761 24.8939ZM89.7392 23.2897C89.7392 23.3414 89.7392 23.3414 89.687 23.3414H88.435C88.3901 23.3485 88.3476 23.3664 88.3113 23.3934C88.2749 23.4205 88.2457 23.4559 88.2263 23.4967C88.1081 23.732 88.0036 23.9739 87.9133 24.2212L85.0962 31.5695L85.0441 31.6213H84.731C84.6789 31.6213 84.6267 31.6213 84.6267 31.5695L81.4966 24.8939L78.9925 31.5695C78.9925 31.6213 78.8882 31.6213 78.7317 31.6213C78.5752 31.6213 78.523 31.6213 78.4709 31.5695L74.6104 23.4449L74.5583 23.3932H73.2019L73.1497 23.3414V23.0309C73.1497 22.9792 73.1497 22.9792 73.2019 22.9792H78.523V23.4449H77.3232C77.2188 23.4449 77.1667 23.4449 77.2188 23.4967L79.5664 28.7751L81.2358 24.4282L80.7663 23.4967C80.7141 23.4449 80.6619 23.4449 80.5576 23.4449H79.5664C79.5142 23.4449 79.5142 23.4449 79.5142 23.3932V23.0827C79.5142 23.0309 79.5142 23.0309 79.5664 23.0309H84.6789V23.4967H83.479C83.3747 23.4967 83.3747 23.4967 83.3747 23.5484L85.7222 28.7751L87.4438 24.3247C87.5542 24.0966 87.6247 23.8516 87.6525 23.6002C87.6525 23.4967 87.6003 23.4449 87.5481 23.4449H86.3483C86.2961 23.4449 86.2961 23.4449 86.2961 23.3932V23.0827C86.2961 23.0309 86.2961 23.0309 86.3483 23.0309H89.6348L89.687 23.0827C89.6847 23.1551 89.7028 23.2268 89.7392 23.2897Z" fill="#209D59"/>
<path fill-rule="evenodd" clip-rule="evenodd" d="M55.4125 16.9763H53.4046C53.431 16.9918 53.4556 17.0107 53.4776 17.0326C53.5414 17.0959 53.58 17.18 53.586 17.2693L53.5866 17.278V30.845C53.5866 30.8452 53.5867 30.8456 53.5867 30.8462C53.5873 30.8589 53.5922 30.9669 53.5298 31.0597C53.5009 31.1027 53.4659 31.1336 53.4289 31.1555H55.4125V29.9461L55.557 30.0944C55.5133 30.0209 55.4731 29.9451 55.4367 29.8671L55.4125 29.8153V24.4066L55.4161 24.3854C55.4293 24.3071 55.45 24.2305 55.4777 24.1567L55.4125 24.2296V16.9763ZM56.415 23.2765C56.4798 23.2565 56.5481 23.2313 56.6251 23.2026L56.6312 23.2004C56.7307 23.1634 56.8458 23.1205 56.9636 23.0911C57.1845 23.0314 57.4108 22.9941 57.6392 22.9797L57.6482 22.9791L57.6433 22.9789C57.3104 22.9631 56.9782 23.0215 56.6711 23.1498C56.5829 23.1866 56.4973 23.229 56.415 23.2765ZM55.9342 22.9694V16.7693L55.9342 16.7671C55.9342 16.7579 55.9343 16.7335 55.9318 16.7108C55.9292 16.6877 55.9192 16.6084 55.8513 16.541C55.7834 16.4737 55.7034 16.4637 55.6802 16.4611C55.6572 16.4586 55.6326 16.4587 55.6234 16.4588L55.6212 16.4588H51.9694C51.9113 16.4588 51.8415 16.474 51.7791 16.5222C51.719 16.5685 51.6902 16.6267 51.6763 16.668C51.6552 16.7309 51.6561 16.7989 51.6564 16.8175C51.6564 16.819 51.6564 16.8202 51.6564 16.821V17.2387L51.8614 17.442H53.065V30.6898H51.9694C51.9113 30.6898 51.8415 30.7051 51.7791 30.7532C51.719 30.7996 51.6902 30.8577 51.6763 30.8991C51.6552 30.9619 51.6561 31.0299 51.6564 31.0485C51.6564 31.05 51.6564 31.0512 51.6564 31.052V31.4697L51.8614 31.673H55.6212C55.6279 31.673 55.655 31.6734 55.6802 31.6706C55.7034 31.6681 55.7834 31.6581 55.8513 31.5908C55.9192 31.5234 55.9292 31.4441 55.9318 31.421C55.9343 31.3982 55.9342 31.3738 55.9342 31.3647L55.9342 31.3625V31.156C56.1427 31.3089 56.3677 31.4395 56.6056 31.5449C57.0443 31.7605 57.5265 31.8751 58.0162 31.88C58.6352 31.8961 59.249 31.7628 59.8047 31.4916C60.3324 31.2387 60.8036 30.8833 61.1905 30.4466L61.1929 30.4438C61.5686 30.0072 61.8659 29.5099 62.0718 28.9736C62.2937 28.4332 62.3891 27.8499 62.351 27.2678C62.3597 26.6619 62.2274 26.0622 61.9643 25.5153C61.7393 24.9463 61.4023 24.4274 60.9729 23.9891C60.5428 23.5516 60.0443 23.1852 59.4971 22.9046L59.496 22.904C58.9281 22.6162 58.3 22.4647 57.6624 22.4617C57.2536 22.4432 56.8458 22.5153 56.4686 22.6729C56.2793 22.7519 56.1002 22.8515 55.9342 22.9694ZM61.8292 28.8786L61.5877 28.7808C61.7817 28.3093 61.8645 27.8 61.8298 27.2918L61.829 27.2809L61.8292 27.2699C61.8384 26.7375 61.7221 26.2104 61.4897 25.7304L61.4854 25.7215L61.4818 25.7123C61.2822 25.2043 60.9821 24.7411 60.5991 24.35C60.2083 23.9525 59.7556 23.6198 59.2584 23.3647C58.763 23.1137 58.2151 22.9817 57.6589 22.9792M57.6589 22.9792C57.9291 22.9809 58.1978 23.019 58.4577 23.0926L58.4629 23.0941L58.4681 23.0958C58.6995 23.1718 58.9111 23.2977 59.0877 23.4645L59.0912 23.4679L59.0946 23.4714C59.4782 23.8619 59.7076 24.376 59.7414 24.9199C59.8535 25.7149 59.9235 26.5151 59.951 27.3173L59.9511 27.321C59.9666 28.0972 59.9133 28.8732 59.792 29.6402C59.7234 30.1522 59.5013 30.632 59.1545 31.0173L59.1496 31.0228L58.9357 31.235C58.9218 31.2488 58.9077 31.261 58.8941 31.2717C59.1286 31.2153 59.357 31.1334 59.5751 31.0269L59.5769 31.026C60.0415 30.8035 60.4565 30.4908 60.7972 30.1065C61.1342 29.7146 61.4008 29.2681 61.5854 28.7866L61.8292 28.8786M59.4816 24.9456L59.2212 24.9603C59.1971 24.5385 59.0207 24.1394 58.7244 23.836C58.6056 23.7247 58.464 23.6404 58.3091 23.5887C58.0989 23.5297 57.8817 23.4988 57.6632 23.4967C57.4723 23.5093 57.2831 23.5409 57.0985 23.591L57.093 23.5925C57.0056 23.6142 56.9154 23.6474 56.8083 23.6872L56.8022 23.6894C56.7079 23.7245 56.5996 23.7648 56.4882 23.794C56.3516 23.8539 56.2326 23.9476 56.1427 24.0662L56.1335 24.0782L56.123 24.0892C56.0265 24.1896 55.961 24.3153 55.9342 24.4513V29.6995C56.1299 30.0907 56.4451 30.4112 56.8356 30.6147C57.2244 30.8071 57.6479 30.9206 58.0814 30.9485H58.3685C58.3776 30.9459 58.3893 30.9421 58.408 30.9359C58.4258 30.93 58.4526 30.9211 58.4789 30.914C58.4807 30.9135 58.4826 30.913 58.4846 30.9124C58.513 30.8938 58.5374 30.8817 58.5528 30.8741L58.5564 30.8724C58.5639 30.8686 58.5685 30.8662 58.5711 30.8648L58.7701 30.6674C59.0452 30.3596 59.2211 29.9772 59.2752 29.5693L59.276 29.5628C59.3929 28.8255 59.4443 28.0794 59.4296 27.3331C59.4025 26.5462 59.3336 25.7613 59.2233 24.9816L59.4816 24.9456ZM36.4616 17.0276C36.2952 17.0188 36.129 17.0481 35.9758 17.1133C35.8226 17.1784 35.6865 17.2776 35.5782 17.4032L35.5762 17.4055C35.352 17.6593 35.2269 17.9842 35.2235 18.3215C35.2272 18.6363 35.3477 18.9386 35.5618 19.1706C35.816 19.3876 36.1395 19.5086 36.4751 19.5119C36.7767 19.5078 37.065 19.3876 37.2791 19.1769C37.4968 18.944 37.6195 18.6391 37.6232 18.3215C37.6198 17.9842 37.4947 17.6592 37.2705 17.4055L37.2678 17.4024L37.2651 17.3992C37.1692 17.2833 37.0486 17.19 36.9121 17.1258C36.7755 17.0616 36.6263 17.0282 36.4751 17.028L36.4684 17.028L36.4616 17.0276ZM36.4755 19.7707L36.4733 20.0294C36.0075 20.0256 35.5585 19.8559 35.2081 19.5513L35.1983 19.5428L35.1893 19.5333C34.8802 19.2049 34.7062 18.7736 34.7018 18.3243L34.7018 18.3196C34.7056 17.8579 34.8764 17.413 35.1829 17.0655C35.3431 16.8802 35.544 16.7338 35.7703 16.6376C35.9949 16.5421 36.2386 16.4987 36.4827 16.5105C36.7085 16.5118 36.9313 16.5622 37.1354 16.6581C37.3403 16.7544 37.5213 16.8942 37.6656 17.0675C37.971 17.4147 38.141 17.8588 38.1449 18.3196L38.1449 18.3243C38.1405 18.7736 37.9665 19.2049 37.6573 19.5333L37.6543 19.5365L37.6511 19.5397C37.3398 19.8486 36.9189 20.0243 36.4785 20.0294L36.4755 19.7707ZM17.3305 17.4983C17.4798 17.5256 17.6274 17.5625 17.7724 17.6089C18.0946 17.7046 18.3778 17.8995 18.581 18.1654L18.5869 18.1731L18.5922 18.1812C18.7968 18.4949 18.9183 18.8547 18.9458 19.2272C19.0146 19.7503 19.0498 20.2772 19.0514 20.8047C19.0538 21.3333 19.0185 21.8615 18.9458 22.3852C18.9182 22.7564 18.7972 23.1148 18.5938 23.4277C18.5051 23.5702 18.389 23.6938 18.2523 23.7917C18.6888 23.7513 19.1166 23.6419 19.5193 23.4672C19.8955 23.2988 20.2412 23.0701 20.5425 22.7903L20.547 22.786L20.5518 22.782C20.8465 22.5334 21.072 22.214 21.2066 21.8542L21.2089 21.8478C21.3633 21.4661 21.4455 21.0594 21.4511 20.6482C21.4526 20.2246 21.3558 19.8064 21.1682 19.4259C20.9464 19.0391 20.6514 18.6983 20.2995 18.4223C19.8911 18.1106 19.4259 17.88 18.9295 17.7431C18.4076 17.5998 17.871 17.5177 17.3305 17.4983ZM18.0029 23.9311C17.92 23.9661 17.8335 23.9924 17.7446 24.0094L17.7411 24.0101C17.4327 24.065 17.121 24.0989 16.8081 24.1118V24.1128C17.4567 24.1235 18.0937 24.2964 18.6593 24.6176L18.667 24.6219L18.6744 24.6268C19.2573 25.0123 19.4687 25.751 19.4687 26.6533V27.9537C19.4536 28.5373 19.5538 29.1181 19.7636 29.6635C19.9343 30.0803 20.1967 30.454 20.5315 30.7575L20.5323 30.7582C20.8358 31.0355 21.1949 31.246 21.5861 31.3759L21.593 31.3782C21.9478 31.5071 22.3231 31.572 22.701 31.5695C23.0109 31.5668 23.3177 31.5086 23.6066 31.398C23.4606 31.4206 23.3122 31.4263 23.1645 31.4145C22.7936 31.4206 22.4343 31.2849 22.1612 31.0353L22.1453 31.0208L22.132 31.0038C21.8519 30.6461 21.7204 30.1959 21.7641 29.7454V27.8913C21.7711 27.4466 21.7052 27.0037 21.5688 26.58C21.4198 26.1558 21.1894 25.7643 20.8901 25.4271L20.8885 25.4253C20.5774 25.068 20.1834 24.791 19.7405 24.618C19.1882 24.4136 18.6021 24.314 18.0127 24.3246L18.0029 23.9311ZM24.4769 31.1038L24.6531 31.2946C24.4161 31.51 24.1535 31.696 23.8713 31.8485L23.8583 31.8555L23.8447 31.861C23.4827 32.0069 23.0962 32.0836 22.7054 32.087L22.7049 32.087C22.2657 32.0899 21.8295 32.0149 21.417 31.8655C20.9576 31.7123 20.5358 31.4649 20.1793 31.1392C19.7865 30.7832 19.479 30.3446 19.2791 29.8555L19.2772 29.8507C19.0428 29.2425 18.9307 28.5947 18.947 27.9438V26.6533C18.947 25.8019 18.7438 25.2996 18.392 25.0621C17.8359 24.7484 17.2005 24.6 16.5616 24.6347L16.2865 24.6497V23.6011L16.5463 23.6001C16.9154 23.5988 17.2837 23.5656 17.6471 23.501C17.7504 23.481 17.8484 23.4399 17.935 23.3805C18.022 23.3207 18.0955 23.2437 18.151 23.1542L18.1541 23.1491C18.3122 22.9066 18.4058 22.6283 18.426 22.3402L18.4266 22.3314L18.4278 22.3226C18.498 21.8204 18.5321 21.3139 18.5297 20.8069C18.5282 20.2987 18.4941 19.7907 18.4276 19.2868L18.4265 19.279L18.426 19.2712C18.406 18.9863 18.3144 18.7111 18.1595 18.4705C18.0231 18.2954 17.8347 18.1671 17.6207 18.104L17.6147 18.1022C17.2895 17.9978 16.9487 17.9495 16.6071 17.9594L15.9507 17.9784L16.9608 16.9764L17.0686 16.9763C17.7445 16.9753 18.4174 17.0655 19.0688 17.2444C19.6305 17.3993 20.1571 17.6604 20.619 18.0132L20.6216 18.0152C21.0291 18.3345 21.3701 18.7292 21.6259 19.1775L21.6296 19.184L21.633 19.1907C21.8585 19.645 21.9748 20.145 21.9728 20.6515L21.9728 20.6539C21.9664 21.1281 21.8721 21.5971 21.6945 22.0374C21.5294 22.477 21.2541 22.8676 20.8945 23.1722C20.5521 23.4893 20.1595 23.7486 19.7324 23.9395L19.7299 23.9407C19.6721 23.9658 19.6139 23.9896 19.5553 24.0123C19.6799 24.0482 19.8033 24.0888 19.9252 24.134L19.9293 24.1355C20.4513 24.339 20.9157 24.6652 21.2825 25.0861C21.6267 25.4742 21.8917 25.9249 22.0627 26.4132L22.0648 26.4192C22.2189 26.8967 22.2935 27.396 22.2858 27.8973V29.7718L22.2844 29.7851C22.2513 30.1002 22.3394 30.4158 22.5306 30.6689C22.7055 30.8215 22.9323 30.9031 23.1656 30.8969L23.1806 30.8965L23.1955 30.8978C23.3488 30.9112 23.5032 30.8987 23.6522 30.8609C23.75 30.8087 23.8343 30.7346 23.8984 30.6443L24.0276 30.4623L24.0678 30.4822C23.94 30.2077 23.8825 29.9046 23.9026 29.6C23.8805 29.0902 24.0243 28.5867 24.3131 28.1641L24.3153 28.161L24.3175 28.1579C24.5623 27.8212 24.8705 27.5346 25.2251 27.3139L25.2298 27.311L25.2347 27.3082C25.5677 27.1203 25.9297 26.988 26.306 26.9167L26.312 26.9155C26.6296 26.863 26.9302 26.8132 27.1263 26.7646L27.1459 26.7597L27.166 26.7579C27.739 26.7062 28.2572 26.6548 28.6701 26.6036C28.8573 26.5804 28.9677 26.5369 29.0242 26.4983C29.0694 26.4675 29.068 26.4507 29.0677 26.4469C29.0677 26.4467 29.0676 26.4465 29.0676 26.4464V24.9427C29.0709 24.6505 29.0383 24.3589 28.9705 24.0745C28.9397 23.9489 28.8764 23.8334 28.7868 23.7396C28.7048 23.6751 28.6107 23.6275 28.5099 23.5995C28.4288 23.5965 28.3504 23.5844 28.2856 23.5744C28.2786 23.5733 28.2717 23.5723 28.265 23.5713C28.1817 23.5585 28.1072 23.5484 28.0243 23.5484H27.594L27.5812 23.5471C27.5024 23.5394 27.4228 23.5499 27.3488 23.5777C27.3173 23.594 27.2917 23.6107 27.256 23.6343L27.2535 23.636C27.2323 23.65 27.2076 23.6663 27.1787 23.6837C27.1497 23.7533 27.1355 23.8285 27.1373 23.9043C27.1404 24.0292 27.1676 24.1523 27.2174 24.267C27.2972 24.427 27.341 24.6022 27.3459 24.7805C27.3527 24.9179 27.3317 25.0552 27.2843 25.1844C27.2365 25.3148 27.1628 25.4344 27.0675 25.5359L27.0579 25.5461L27.0473 25.5552C26.7846 25.7809 26.444 25.8964 26.0975 25.8778C25.9172 25.892 25.7359 25.8647 25.5678 25.798C25.3928 25.7286 25.2372 25.6184 25.1141 25.4769L25.1127 25.4754C24.9131 25.2423 24.7993 24.9487 24.79 24.6429L24.7899 24.6386C24.786 24.3567 24.8781 24.0818 25.0512 23.8583C25.2407 23.6045 25.4776 23.3893 25.7491 23.2243C26.0619 23.0341 26.3987 22.8856 26.7507 22.7827L26.7536 22.7819C27.1656 22.6666 27.5921 22.611 28.0201 22.6168C29.0336 22.5708 30.0272 22.907 30.8012 23.5579C31.563 24.1973 31.8847 25.2201 31.8847 26.4981V30.3793C31.8847 30.5925 31.9223 30.696 31.9544 30.7411C31.9731 30.7675 32.0012 30.7927 32.0903 30.7933C32.1908 30.7904 32.2895 30.7667 32.3802 30.7238C32.4233 30.6935 32.4562 30.6508 32.4743 30.6013L32.5367 30.431H32.8796L33.1647 30.7138L33.4152 30.9623L33.203 31.1443C32.9961 31.3216 32.7678 31.4726 32.5233 31.5938C32.1474 31.7822 31.732 31.8803 31.3107 31.88L31.3056 31.88L31.3004 31.8798C31.0516 31.8699 30.8046 31.8322 30.5643 31.7675L30.5585 31.7659C30.3247 31.6971 30.0989 31.6039 29.8849 31.4879C29.6587 31.3734 29.4656 31.2035 29.3241 30.9944C29.3068 30.9714 29.2901 30.948 29.2739 30.9242C29.122 31.1558 28.927 31.3587 28.6977 31.5213L28.6959 31.5225C28.2684 31.8204 27.7513 31.9646 27.2301 31.9316C26.8524 31.9222 26.4758 31.8865 26.1032 31.8247L26.0973 31.8237C25.7225 31.7527 25.3621 31.6212 25.0302 31.4345C24.856 31.344 24.6943 31.2328 24.5484 31.1038C24.5271 31.1038 24.5033 31.1038 24.4769 31.1038ZM29.3778 29.7488L29.5267 30.255C29.5728 30.4119 29.6471 30.5591 29.7459 30.6898L29.7503 30.6957L29.7544 30.7019C29.8473 30.8405 29.9748 30.953 30.1245 31.0282L30.1283 31.0301L30.132 31.0321C30.3137 31.1309 30.5054 31.2102 30.704 31.2689C30.9039 31.3225 31.1092 31.3539 31.3161 31.3625C31.5096 31.3622 31.7015 31.3361 31.8868 31.2855C31.7467 31.2489 31.6216 31.1708 31.5282 31.0395C31.4037 30.8647 31.363 30.6318 31.363 30.3793V26.4981C31.363 25.2921 31.0587 24.4519 30.4642 23.9529C30.0124 23.5729 29.4744 23.316 28.903 23.2003C28.983 23.2417 29.0588 23.2913 29.1289 23.3485L29.1397 23.3573L29.1494 23.3671C29.3102 23.5294 29.4236 23.732 29.4777 23.9532L29.478 23.9545C29.5556 24.2797 29.593 24.613 29.5893 24.9471V26.4464C29.5893 26.651 29.4805 26.8152 29.3198 26.9248C29.2962 26.9409 29.2714 26.9559 29.2455 26.9699L29.2763 27.0156H29.5372V28.6673C29.5491 29.0365 29.4944 29.4025 29.3778 29.7488ZM26.9808 27.325C26.8039 27.3589 26.6027 27.3922 26.4078 27.4244L26.4009 27.4256C26.0837 27.486 25.7786 27.5973 25.4976 27.7552C25.2031 27.9394 24.9469 28.1778 24.7428 28.4576C24.516 28.791 24.4042 29.1884 24.4244 29.5902L24.4252 29.6062L24.424 29.6222C24.4024 29.9102 24.4778 30.1971 24.6384 30.4378C24.8067 30.6634 25.0245 30.8481 25.2755 30.9778L25.2798 30.98L25.284 30.9824C25.5664 31.1417 25.8732 31.254 26.1923 31.3148C26.5414 31.3726 26.8942 31.4059 27.2481 31.4144L27.2536 31.4145L27.259 31.4148C27.6629 31.4414 28.0638 31.3302 28.3951 31.0997C28.4157 31.0851 28.4359 31.07 28.4557 31.0546C28.2178 31.1923 27.9466 31.263 27.6712 31.2593C27.4199 31.2858 27.166 31.2438 26.9369 31.1379C26.83 31.1023 26.7328 31.0426 26.6529 30.9634C26.5731 30.8842 26.5129 30.7878 26.477 30.6818C26.3942 30.5057 26.3525 30.3133 26.3549 30.1188V29.5045C26.3408 29.1372 26.3578 28.7693 26.4059 28.4048C26.39 28.1394 26.4597 27.8755 26.6052 27.6516L26.6162 27.6347L26.6297 27.6196C26.7323 27.5056 26.8505 27.4064 26.9808 27.325ZM29.0155 27.4326V28.6759L29.0156 28.6803C29.0337 29.2137 28.8846 29.7395 28.5889 30.1853L28.5814 30.1966L28.5751 30.2087C28.4893 30.3733 28.3585 30.5105 28.1977 30.6048C28.0369 30.699 27.8526 30.7465 27.6659 30.7416L27.6469 30.7411L27.628 30.7434C27.4631 30.763 27.296 30.7354 27.1465 30.6638L27.1282 30.655L27.1088 30.6492C27.076 30.6393 27.0461 30.6215 27.0218 30.5975C26.9976 30.5734 26.9797 30.5438 26.9697 30.5112L26.9637 30.4917L26.9548 30.4734C26.9017 30.3646 26.8749 30.245 26.8766 30.1241L26.8766 29.4945L26.8764 29.4895C26.8627 29.1413 26.8795 28.7927 26.9264 28.4474L26.9302 28.4195L26.9279 28.3915C26.9149 28.2364 26.9519 28.0814 27.0331 27.9487C27.1001 27.877 27.1763 27.8143 27.2597 27.7623C27.3876 27.7062 27.5206 27.6625 27.6569 27.6319C27.7942 27.6096 27.9327 27.5976 28.0772 27.5852L28.0925 27.5839C28.234 27.5717 28.3848 27.5584 28.5265 27.5316C28.694 27.5211 28.8585 27.4876 29.0155 27.4326ZM26.7853 23.314C26.5181 23.4016 26.2619 23.5195 26.0217 23.6655C25.8067 23.7962 25.6191 23.9668 25.4691 24.168L25.466 24.1722C25.3641 24.3031 25.3097 24.4642 25.3115 24.6295C25.3177 24.8168 25.3875 24.9965 25.5096 25.1395C25.5781 25.2179 25.6644 25.279 25.7615 25.3175C25.8589 25.3561 25.9642 25.371 26.0686 25.3609L26.0904 25.3587L26.1123 25.3603C26.3237 25.375 26.5324 25.3079 26.6948 25.1733C26.738 25.1248 26.7717 25.0686 26.7941 25.0076C26.818 24.9424 26.8284 24.8731 26.8248 24.8038L26.8244 24.7967C26.8218 24.6909 26.7957 24.5871 26.7479 24.4926L26.7448 24.4865L26.742 24.4802C26.6635 24.3024 26.6206 24.1111 26.6158 23.917C26.6111 23.7254 26.6588 23.5362 26.7538 23.3693L26.7853 23.314ZM32.3625 31.2763C32.3623 31.2764 32.3626 31.2763 32.3625 31.2763V31.2763ZM46.7433 23.0424C46.8128 23.0659 46.8803 23.0958 46.9449 23.1318C47.1325 23.2365 47.2883 23.3893 47.3959 23.5743L47.4051 23.5902L47.412 23.6071C47.6249 24.1324 47.7203 24.6973 47.6917 25.2627V30.9055L47.6911 30.9142C47.6853 30.999 47.6503 31.079 47.5922 31.1411L49.5621 31.1209C49.5343 31.0735 49.5175 31.0163 49.5175 30.9485V26.127L49.5181 26.1182C49.5471 25.6985 49.4851 25.2776 49.3362 24.8837C49.1886 24.4931 48.9589 24.1382 48.6625 23.8424C48.1166 23.3861 47.4463 23.1091 46.7433 23.0424ZM51.3956 31.114C51.4006 31.1183 51.4056 31.1229 51.4105 31.1278C51.4546 31.1715 51.4818 31.2245 51.4932 31.2811C51.5011 31.3199 51.4999 31.3589 51.4999 31.3625V31.6186L46.0718 31.6741L45.8658 31.4697V31.052L45.8658 31.0498C45.8657 31.0407 45.8656 31.0163 45.8682 30.9935C45.8708 30.9705 45.8808 30.8911 45.9487 30.8238C46.0166 30.7564 46.0966 30.7465 46.1198 30.7439C46.1428 30.7414 46.1674 30.7415 46.1766 30.7415L46.1788 30.7415H47.17V25.2494L47.1703 25.2427C47.1958 24.7566 47.1156 24.2708 46.9352 23.8182C46.8748 23.7203 46.7901 23.6392 46.6891 23.5828C46.583 23.5236 46.4629 23.4938 46.3412 23.4966L46.3333 23.4968L46.3253 23.4965C45.8477 23.4783 45.3782 23.6208 44.9927 23.9005C44.5892 24.3006 44.2969 24.7974 44.1442 25.3425V30.7415H45.4484V31.673H40.0192L39.8143 31.4697V31.052L39.8143 31.0498C39.8142 31.0407 39.8141 31.0163 39.8167 30.9935C39.8193 30.9705 39.8293 30.8911 39.8972 30.8238C39.9651 30.7564 40.0451 30.7465 40.0683 30.7439C40.0913 30.7414 40.1159 30.7415 40.1251 30.7415L40.1273 30.7415H41.1706V23.6001H40.0192L39.8143 23.3968V22.9792L39.8143 22.977C39.8142 22.9678 39.8141 22.9435 39.8167 22.9207C39.8193 22.8976 39.8293 22.8183 39.8972 22.7509C39.9651 22.6836 40.0451 22.6736 40.0683 22.6711C40.0913 22.6685 40.1159 22.6686 40.1251 22.6687L40.1273 22.6687H43.779L43.7813 22.6687C43.7905 22.6686 43.815 22.6685 43.838 22.6711C43.8613 22.6736 43.9412 22.6836 44.0091 22.7509C44.077 22.8183 44.0871 22.8976 44.0896 22.9207C44.0924 22.9456 44.0921 22.9725 44.0921 22.9792V23.3804C44.2609 23.1808 44.4699 23.0181 44.7061 22.9028C44.938 22.7867 45.1812 22.694 45.4318 22.6261L45.4369 22.6247C45.6932 22.5606 45.9557 22.5234 46.2199 22.5136C47.2358 22.4658 48.2322 22.8021 49.008 23.4545L49.0161 23.4614L49.0237 23.4688C49.3765 23.8184 49.6496 24.2389 49.8247 24.702C49.9987 25.1623 50.0718 25.6541 50.0392 26.1446V30.7933H51.1906L51.3956 30.9966V31.114ZM43.6225 25.8083L43.5704 25.9686V23.1862H41.5741C41.6436 23.2444 41.6923 23.3291 41.6923 23.4449V30.8968C41.6923 31.0126 41.6436 31.0973 41.5741 31.1555H43.7363C43.7347 31.154 43.7331 31.1525 43.7315 31.1509C43.6677 31.0876 43.6292 31.0036 43.6231 30.9142L43.6225 30.9055V25.8083ZM66.9748 23.3454C66.9115 23.3695 66.8488 23.3953 66.7867 23.4226L66.7826 23.4244L66.7784 23.4261C66.2842 23.6239 65.836 23.92 65.4614 24.296C65.0975 24.6907 64.7968 25.1385 64.5699 25.6237L64.5688 25.626C64.331 26.122 64.2145 26.6668 64.2288 27.2159L64.229 27.2214L64.2289 27.2269C64.2196 27.7771 64.3362 28.3222 64.5698 28.8213L64.5727 28.8273L64.5752 28.8335C64.7742 29.3227 65.0718 29.7665 65.4497 30.1377C65.8581 30.4893 66.3101 30.7879 66.7946 31.0262C66.9902 31.1184 67.1933 31.1921 67.4012 31.2469C67.1949 31.1593 67.0087 31.0298 66.8551 30.8661L66.8476 30.8581L66.8408 30.8495C66.7162 30.692 66.6041 30.5252 66.5055 30.3505L66.5028 30.3459L66.5004 30.3412C66.3804 30.1067 66.3014 29.8537 66.2668 29.593C66.2383 29.4477 66.2246 29.2801 66.2121 29.1183L66.2094 29.0839C66.1971 28.9244 66.1847 28.7642 66.1618 28.6047L66.161 28.5995L66.1605 28.5943C66.1119 28.121 66.094 27.6451 66.1069 27.1695C66.0939 26.397 66.147 25.6247 66.2655 24.8611C66.3175 24.358 66.518 23.8813 66.8419 23.4907C66.8825 23.4386 66.927 23.39 66.9748 23.3454ZM69.5162 23.2404C69.6863 23.2896 69.8533 23.3502 70.0161 23.4218C70.5039 23.6465 70.9542 23.9439 71.3512 24.3038C71.7337 24.691 72.05 25.1374 72.2879 25.6255C72.5199 26.1217 72.6362 26.6634 72.6282 27.2103C72.5834 27.764 72.4669 28.3097 72.2814 28.8338C72.057 29.3238 71.7414 29.7675 71.3512 30.1415L71.3467 30.1459C70.9714 30.5234 70.522 30.8206 70.0263 31.0191L70.0201 31.0216L70.014 31.0244C69.696 31.1709 69.3594 31.271 69.0147 31.3225C69.04 31.3164 69.0653 31.3101 69.0905 31.3034C69.3694 31.2411 69.6182 31.0861 69.7959 30.8642C69.9535 30.7138 70.0759 30.5309 70.1543 30.3283C70.2707 30.0975 70.3474 29.8491 70.3815 29.5933C70.4345 29.3281 70.4868 28.9644 70.5377 28.6109L70.5386 28.6047L70.5394 28.5995L70.5399 28.5943C70.5885 28.121 70.6064 27.6451 70.5935 27.1695C70.6065 26.3957 70.5532 25.6221 70.4343 24.8572C70.3658 24.345 70.1437 23.8651 69.7968 23.4796L69.7932 23.4756C69.7098 23.3867 69.6168 23.3079 69.5162 23.2404ZM72.5237 28.9303L72.7696 29.0164C72.9733 28.4442 73.1008 27.8479 73.1489 27.2429L73.1495 27.2349L73.1496 27.2269C73.1602 26.5985 73.0271 25.9759 72.7603 25.4059L72.7585 25.4024C72.4949 24.8606 72.1435 24.3654 71.7185 23.9363L71.7137 23.9314L71.7087 23.9269C71.2704 23.5285 70.7729 23.1996 70.2337 22.9514L70.2298 22.9497C69.6545 22.6962 69.0319 22.5652 68.4024 22.5652C67.7743 22.5652 67.1532 22.6955 66.579 22.9479C66.0188 23.1728 65.5109 23.5091 65.0866 23.936L65.0832 23.9393L65.08 23.9428C64.6787 24.3773 64.3472 24.8704 64.0972 25.4048C63.8252 25.9724 63.6916 26.5955 63.7072 27.2238C63.6975 27.8481 63.8297 28.4666 64.0939 29.0333C64.3206 29.5882 64.6593 30.0913 65.0891 30.5118L65.0949 30.5174L65.1011 30.5227C65.5453 30.9062 66.0373 31.2316 66.565 31.4909L66.5688 31.4927C67.1413 31.7628 67.7698 31.8955 68.4036 31.8801C69.0329 31.8897 69.6564 31.7586 70.2277 31.4965C70.7861 31.272 71.2925 30.9368 71.7159 30.5115C72.1553 30.0899 72.51 29.5894 72.7614 29.0367L72.5237 28.9303ZM37.3624 23.1862H35.3661C35.4356 23.2444 35.4843 23.3291 35.4843 23.4449V30.9485C35.4843 31.0643 35.4356 31.149 35.3661 31.2073H37.5602C37.4514 31.1529 37.3624 31.0532 37.3624 30.8968V23.1862ZM37.8201 22.7904C37.8686 22.8522 37.8841 22.9215 37.8841 22.9792V30.7415H39.2404V31.3625C39.2404 31.3634 39.2404 31.3645 39.2405 31.366C39.2407 31.3847 39.2416 31.4526 39.2205 31.5155C39.2066 31.5569 39.1778 31.615 39.1177 31.6614C39.0554 31.7095 38.9856 31.7248 38.9274 31.7248H33.7591L33.5541 31.5215V31.1038L33.5541 31.1016C33.5541 31.0925 33.554 31.0681 33.5565 31.0453C33.5591 31.0222 33.5691 30.9429 33.637 30.8755C33.7049 30.8082 33.7849 30.7982 33.8081 30.7957C33.8311 30.7931 33.8557 30.7932 33.8649 30.7933L33.8671 30.7933H34.9626V23.6001H33.7591L33.5541 23.3968V22.9792C33.5541 22.9725 33.5537 22.9456 33.5565 22.9207C33.5591 22.8976 33.5691 22.8183 33.637 22.7509C33.7049 22.6836 33.7849 22.6736 33.8081 22.6711C33.8311 22.6685 33.8557 22.6686 33.8649 22.6687L33.8671 22.6687H37.5189C37.5197 22.6687 37.5209 22.6686 37.5224 22.6686C37.5412 22.6684 37.6097 22.6674 37.6731 22.6884C37.7148 22.7022 37.7734 22.7308 37.8201 22.7904ZM74.7706 23.2379L74.8269 23.2938L78.6607 31.3623C78.6798 31.3625 78.7026 31.3625 78.7317 31.3625C78.754 31.3625 78.7738 31.3625 78.7919 31.3624L79.5423 29.3619L76.995 23.6344C76.9925 23.6311 76.9901 23.6277 76.9877 23.6241C76.9733 23.6029 76.9462 23.558 76.9392 23.4953C76.9306 23.4191 76.9548 23.3413 77.0094 23.2824C77.0268 23.2636 77.0451 23.2491 77.0625 23.2379H74.7706ZM81.5233 25.5645L79.2458 31.6362C79.2255 31.7234 79.1671 31.7861 79.1079 31.8213C79.0501 31.8557 78.9901 31.8664 78.9576 31.8709C78.8931 31.8801 78.8114 31.8801 78.7439 31.88L78.7175 31.88C78.6528 31.8801 78.5804 31.8801 78.5192 31.87C78.4307 31.8554 78.3538 31.8194 78.2864 31.7525L78.2542 31.7206L74.4204 23.6519H73.0938L72.8888 23.4486V23.0309L72.8888 23.0287C72.8888 23.0196 72.8887 22.9952 72.8912 22.9724C72.8938 22.9494 72.9038 22.87 72.9717 22.8027C73.0396 22.7353 73.1196 22.7254 73.1429 22.7228C73.168 22.72 73.1952 22.7204 73.2018 22.7204H78.7838V23.7036H77.5959L79.5487 28.0943L80.9512 24.4422L80.5789 23.7037C80.5724 23.7036 80.5654 23.7036 80.5575 23.7036H79.5663L79.5641 23.7037C79.5549 23.7037 79.5304 23.7038 79.5074 23.7013C79.4841 23.6987 79.4042 23.6888 79.3363 23.6214C79.2684 23.5541 79.2583 23.4747 79.2557 23.4517C79.2529 23.4267 79.2533 23.3998 79.2533 23.3931V23.0827L79.2533 23.0805C79.2533 23.0713 79.2532 23.0469 79.2557 23.0242C79.2583 23.0011 79.2684 22.9218 79.3363 22.8544C79.4042 22.7871 79.4841 22.7771 79.5074 22.7745C79.5304 22.772 79.5549 22.7721 79.5641 22.7722L79.5663 22.7722H84.9397V23.7554H83.7531L85.7042 28.0993L87.204 24.2221L87.2086 24.2126C87.2868 24.051 87.3425 23.8798 87.3741 23.7036H86.3482L86.346 23.7037C86.3368 23.7037 86.3122 23.7038 86.2892 23.7013C86.266 23.6987 86.186 23.6888 86.1181 23.6214C86.0502 23.5541 86.0402 23.4747 86.0376 23.4517C86.035 23.4289 86.0351 23.4045 86.0352 23.3954V23.0805C86.0351 23.0713 86.035 23.0469 86.0376 23.0242C86.0402 23.0011 86.0502 22.9218 86.1181 22.8544C86.186 22.7871 86.266 22.7771 86.2892 22.7745C86.3144 22.7718 86.3415 22.7722 86.3482 22.7722H89.7428L89.9512 22.9789L89.9477 23.0908C89.9469 23.1153 89.953 23.1395 89.9653 23.1607L89.7391 23.2897H90V23.2919C90 23.301 90.0001 23.3254 89.9976 23.3482C89.995 23.3712 89.9849 23.4506 89.917 23.5179C89.8491 23.5853 89.7692 23.5952 89.7459 23.5978C89.7229 23.6003 89.6984 23.6002 89.6892 23.6002L89.687 23.6001H88.4681C88.468 23.6002 88.4682 23.6001 88.4681 23.6001C88.4656 23.602 88.4633 23.6046 88.462 23.6073L88.4597 23.612C88.346 23.8385 88.2454 24.0714 88.1585 24.3093L88.157 24.3131L85.3201 31.7133L85.152 31.88H84.731C84.7301 31.88 84.729 31.88 84.7274 31.8801C84.7086 31.8803 84.6402 31.8812 84.5768 31.8603C84.5351 31.8465 84.4765 31.8179 84.4297 31.7583C84.4016 31.7224 84.3846 31.6841 84.3753 31.647L81.5233 25.5645ZM88.0497 23.2897H87.7965C87.8649 23.3619 87.9008 23.4611 87.9105 23.5506C87.9369 23.4945 87.964 23.4387 87.9918 23.3832C88.0079 23.35 88.0273 23.3187 88.0497 23.2897ZM85.6804 29.3177L83.1138 23.6034V23.5484C83.1137 23.5447 83.1126 23.5024 83.1216 23.4623C83.1277 23.4353 83.1403 23.3969 83.1684 23.3581C83.1895 23.3291 83.2142 23.3067 83.2399 23.2897H80.9244C80.9333 23.2971 80.942 23.3051 80.9506 23.3137L80.9806 23.3434L81.4503 24.2753L81.4698 24.2233L84.8173 31.3625H84.8965L85.6804 29.3177ZM77.2595 23.7047C77.2598 23.7047 77.2607 23.7046 77.2622 23.7045C77.26 23.7047 77.259 23.7048 77.2595 23.7047ZM68.9504 23.5366C68.5413 23.4139 68.1046 23.4141 67.6956 23.5373L67.6858 23.5402L67.6759 23.5424C67.5076 23.5791 67.3578 23.6736 67.2531 23.8093L67.2502 23.813L67.2472 23.8166C66.9859 24.1306 66.8246 24.5145 66.7839 24.9196L66.7832 24.9265L66.7821 24.9334C66.6671 25.672 66.6157 26.4191 66.6286 27.1664L66.6287 27.1722L66.6286 27.1779C66.616 27.6315 66.6328 28.0854 66.679 28.5369C66.704 28.7121 66.7174 28.8865 66.7294 29.0414L66.7322 29.0787C66.7455 29.2499 66.7577 29.3892 66.7801 29.5006L66.7819 29.5095L66.7831 29.5185C66.8093 29.7218 66.8702 29.9192 66.9632 30.1023C67.0462 30.2487 67.1402 30.3887 67.2442 30.5212C67.3688 30.6514 67.5243 30.7489 67.6964 30.8046C67.8922 30.8607 68.0945 30.8917 68.2982 30.8967C68.5221 30.8914 68.7445 30.8597 68.9608 30.8021L68.9666 30.8006L68.9724 30.7993C69.1406 30.7626 69.2904 30.6681 69.3952 30.5324L69.4083 30.5154L69.4241 30.5008C69.5339 30.399 69.6184 30.2733 69.6708 30.1336L69.676 30.12L69.6827 30.1069C69.777 29.9226 69.8387 29.7235 69.8652 29.5185L69.8664 29.5095L69.8681 29.5006C69.9183 29.2517 69.9691 28.9 70.0215 28.5367C70.0676 28.0853 70.0844 27.6315 70.0718 27.1779L70.0717 27.1722L70.0718 27.1664C70.0847 26.4191 70.0333 25.672 69.9183 24.9334L69.9174 24.9276C69.8631 24.5183 69.6862 24.1346 69.4095 23.8262C69.2836 23.6927 69.1256 23.5931 68.9504 23.5366Z" fill="#209D59"/>
<path d="M14.878 9.8866C14.8744 10.6471 14.5968 11.3812 14.0955 11.9566C13.5809 11.3891 13.3014 10.6498 13.3129 9.8866C13.3166 9.12611 13.5941 8.39196 14.0955 7.81663C14.5887 8.39672 14.8651 9.12784 14.878 9.8866ZM10.4437 8.64462C10.2349 9.38199 10.2902 10.1684 10.6002 10.8698C10.9432 11.5565 11.5143 12.1048 12.2174 12.4223C12.4262 11.6849 12.3709 10.8986 12.0609 10.1971C11.7485 9.48887 11.1675 8.93115 10.4437 8.64462ZM7.52228 10.8698C7.6309 11.6368 8.02099 12.337 8.61781 12.8363C9.21135 13.3399 9.97663 13.5991 10.7567 13.5608C10.6481 12.7938 10.258 12.0936 9.66117 11.5943C9.06763 11.0907 8.30235 10.8315 7.52228 10.8698ZM5.80073 14.0783C6.22821 14.7176 6.87828 15.1783 7.62662 15.372C8.37566 15.5665 9.16982 15.4932 9.86984 15.165C9.44237 14.5257 8.7923 14.065 8.04396 13.8713C7.29472 13.6793 6.50142 13.7525 5.80073 14.0783ZM16.1822 10.1971C15.8463 10.892 15.7904 11.6879 16.0257 12.4223C16.739 12.1199 17.3148 11.5671 17.6429 10.8698C17.9787 10.1749 18.0347 9.37907 17.7994 8.64462C17.0856 8.94629 16.5095 9.49928 16.1822 10.1971ZM18.5819 11.5943C17.9753 12.0856 17.5829 12.7899 17.4864 13.5608C18.2627 13.5744 19.0194 13.3181 19.6253 12.8363C20.2319 12.345 20.6243 11.6407 20.7208 10.8698C19.9407 10.8315 19.1755 11.0907 18.5819 11.5943ZM20.1991 13.8713C19.4508 14.065 18.8007 14.5257 18.3732 15.165C19.0733 15.4932 19.8674 15.5665 20.6165 15.372C21.3648 15.1783 22.0149 14.7176 22.4424 14.0783C21.7423 13.7501 20.9482 13.6768 20.1991 13.8713ZM5.07038 2.69346C5.00224 3.2774 5.15058 3.866 5.48773 4.34943C5.8192 4.82787 6.32357 5.16141 6.89626 5.28092C6.97084 4.70162 6.82509 4.11555 6.48747 3.63712C6.14986 3.15868 5.64462 2.82224 5.07038 2.69346ZM10.7567 0.364746C10.4775 0.889082 10.4032 1.49716 10.548 2.07247C10.702 2.63957 11.0531 3.13445 11.5392 3.4697C11.8184 2.94536 11.8927 2.33729 11.7479 1.76197C11.6079 1.18848 11.2536 0.689098 10.7567 0.364746ZM1.15778 7.71313C1.32545 8.27181 1.69483 8.74959 2.19529 9.05509C2.69576 9.3606 3.29218 9.47239 3.87052 9.36911C3.69956 8.80951 3.32855 8.33108 2.82715 8.02363C2.33029 7.71447 1.7338 7.60353 1.15778 7.71313ZM2.20114 14.337C2.56236 14.7985 3.08242 15.1118 3.66184 15.2168C4.23784 15.3314 4.83622 15.2201 5.33122 14.9063C4.97 14.4448 4.44994 14.1315 3.87052 14.0265C3.29452 13.9119 2.69614 14.0232 2.20114 14.337ZM8.40914 7.19564C8.35043 7.58757 8.42378 7.98777 8.61781 8.33412C8.82666 8.6852 9.1624 8.94423 9.55684 9.05861C9.61555 8.66668 9.54219 8.26648 9.34816 7.92013C9.12733 7.57972 8.7961 7.32417 8.40914 7.19564ZM4.91388 9.5761C4.9456 9.77352 5.01745 9.96249 5.12507 10.1315C5.23268 10.3005 5.37382 10.4461 5.53989 10.5593C5.69955 10.6863 5.88381 10.7794 6.08123 10.8328C6.27866 10.8862 6.48505 10.8988 6.68759 10.8698C6.65587 10.6724 6.58402 10.4834 6.4764 10.3144C6.36878 10.1454 6.22765 9.99985 6.06157 9.8866C5.73267 9.64221 5.32232 9.5312 4.91388 9.5761ZM12.2696 5.85016C12.0338 6.18146 11.923 6.58447 11.9566 6.98864C12.0108 7.38121 12.1942 7.74502 12.4782 8.02363C12.714 7.69233 12.8248 7.28932 12.7913 6.88515C12.737 6.49258 12.5536 6.12877 12.2696 5.85016ZM21.6598 3.67669C21.3227 4.16013 21.1743 4.74872 21.2425 5.33267C21.8179 5.21957 22.3245 4.88455 22.651 4.40118C22.9882 3.91775 23.1365 3.32915 23.0684 2.74521C22.4957 2.86472 21.9913 3.19826 21.6598 3.67669ZM16.443 1.76197C16.3015 2.33748 16.3757 2.94439 16.6517 3.4697C17.1486 3.14535 17.5029 2.64596 17.6429 2.07247C17.7844 1.49696 17.7102 0.890053 17.4342 0.364746C17.181 0.517499 16.9623 0.720425 16.7917 0.960838C16.6212 1.20125 16.5025 1.47398 16.443 1.76197ZM25.3116 8.02363C24.8102 8.33108 24.4392 8.80951 24.2682 9.36911C24.8443 9.47385 25.439 9.36323 25.9376 9.05861C26.439 8.75116 26.81 8.27272 26.981 7.71313C26.405 7.61303 25.8119 7.72333 25.3116 8.02363ZM24.3204 14.0265C24.029 14.0657 23.749 14.164 23.4976 14.3154C23.2463 14.4668 23.0291 14.6679 22.8597 14.9063C23.3566 15.2154 23.9531 15.3264 24.5291 15.2168C24.8204 15.1776 25.1005 15.0793 25.3518 14.9279C25.6032 14.7765 25.8203 14.5754 25.9898 14.337C25.4948 14.0232 24.8964 13.9119 24.3204 14.0265ZM18.8428 7.92013C18.6487 8.26648 18.5754 8.66668 18.6341 9.05861C19.0285 8.94423 19.3643 8.6852 19.5731 8.33412C19.7671 7.98777 19.8405 7.58757 19.7818 7.19564C19.3873 7.31002 19.0516 7.56906 18.8428 7.92013ZM22.1815 9.8866C21.8793 10.1456 21.6614 10.4878 21.5555 10.8698C21.9616 10.8896 22.3635 10.7809 22.7032 10.5593C23.0054 10.3003 23.2233 9.95812 23.3292 9.5761C23.1267 9.5471 22.9203 9.5597 22.7229 9.61311C22.5254 9.66652 22.3412 9.75961 22.1815 9.8866ZM15.3997 6.88515C15.3704 7.08606 15.3831 7.29079 15.437 7.48663C15.4908 7.68248 15.5847 7.86526 15.7127 8.02363C16.0156 7.75905 16.2027 7.38781 16.2344 6.98864C16.2636 6.78773 16.2509 6.583 16.197 6.38716C16.1432 6.19131 16.0494 6.00853 15.9213 5.85016C15.6373 6.12877 15.4539 6.49258 15.3997 6.88515ZM13.9911 0.364746C13.1177 1.33208 12.6347 2.58506 12.6347 3.88369C12.6347 5.18232 13.1177 6.4353 13.9911 7.40264C14.8547 6.40899 15.3353 5.14384 15.3475 3.83194C15.3441 2.54941 14.8608 1.31382 13.9911 0.364746ZM7.93963 1.71023C7.55597 2.94111 7.64898 4.2697 8.20047 5.43617C8.73793 6.611 9.7087 7.53694 10.9132 8.02363C11.2969 6.79274 11.2039 5.46415 10.6524 4.29769C10.0992 3.13396 9.13356 2.21292 7.93963 1.71023ZM3.03583 5.43617C3.24827 6.71086 3.91464 7.86766 4.91388 8.69637C5.92666 9.52183 7.20289 9.96217 8.51347 9.93835C8.30103 8.66366 7.63466 7.50686 6.63542 6.67815C5.63932 5.82362 4.35151 5.37928 3.03583 5.43617ZM0.21875 10.8698C0.929719 11.9553 2.02995 12.7322 3.29667 13.0433C4.56961 13.3696 5.9177 13.2414 7.10494 12.6811C6.39397 11.5956 5.29374 10.8186 4.02702 10.5076C2.75652 10.1525 1.39807 10.2817 0.21875 10.8698ZM17.5907 4.29769C17.0411 5.46462 16.9481 6.79253 17.3299 8.02363C18.5132 7.50511 19.4739 6.58875 20.0426 5.43617C20.5923 4.26923 20.6852 2.94133 20.3035 1.71023C19.1095 2.21292 18.1439 3.13396 17.5907 4.29769ZM21.6077 6.67815C20.6084 7.50686 19.9421 8.66366 19.7296 9.93835C21.044 9.98682 22.3288 9.54353 23.3292 8.69637C24.3284 7.86766 24.9948 6.71086 25.2073 5.43617C23.8928 5.38769 22.608 5.83099 21.6077 6.67815ZM24.2682 10.5076C23.0106 10.838 21.9167 11.6104 21.1903 12.6811C22.3696 13.2692 23.7281 13.3984 24.9986 13.0433C26.2563 12.7129 27.3501 11.9405 28.0765 10.8698C26.8964 10.2843 25.539 10.1552 24.2682 10.5076ZM14.0955 12.4741C13.8787 12.719 13.7502 13.0285 13.7303 13.3538C13.7183 13.5185 13.7451 13.6837 13.8084 13.8363C13.8718 13.989 13.9701 14.125 14.0955 14.2335C14.3123 13.9886 14.4407 13.6791 14.4606 13.3538C14.417 13.0343 14.2913 12.7314 14.0955 12.4741ZM12.5304 12.8363C12.4433 13.144 12.4616 13.4716 12.5826 13.7678C12.7387 14.0521 12.9741 14.2857 13.2608 14.4405C13.3479 14.1329 13.3295 13.8052 13.2086 13.509C13.1544 13.3532 13.0652 13.2117 12.9477 13.0951C12.8302 12.9786 12.6875 12.8901 12.5304 12.8363ZM11.2784 13.7678C11.3282 14.0912 11.4951 14.3856 11.7479 14.5958C12.0148 14.8048 12.347 14.9147 12.6869 14.9063C12.6371 14.5828 12.4702 14.2885 12.2174 14.0783C11.9465 13.8767 11.617 13.7678 11.2784 13.7678ZM10.548 15.165C10.7367 15.4369 11.0124 15.6375 11.3306 15.7343C11.6619 15.8291 12.0175 15.792 12.3217 15.6308C12.1331 15.3589 11.8573 15.1583 11.5392 15.0615C11.3753 15.0132 11.2033 14.9975 11.0332 15.0153C10.8631 15.033 10.6983 15.0839 10.548 15.165ZM14.9823 13.509C14.9103 13.6526 14.8685 13.8093 14.8595 13.9695C14.8506 14.1296 14.8746 14.2899 14.9301 14.4405C15.0872 14.3868 15.2299 14.2982 15.3474 14.1817C15.4649 14.0651 15.5541 13.9236 15.6083 13.7678C15.6804 13.6242 15.7222 13.4675 15.7311 13.3074C15.7401 13.1472 15.7161 12.9869 15.6605 12.8363C15.3628 12.9759 15.1231 13.2137 14.9823 13.509ZM16.0257 14.0783C15.7729 14.2885 15.606 14.5828 15.5562 14.9063C15.8935 14.8985 16.2206 14.7903 16.4952 14.5958C16.748 14.3856 16.9149 14.0912 16.9647 13.7678C16.6248 13.7594 16.2925 13.8692 16.0257 14.0783ZM16.7039 15.0615C16.3858 15.1583 16.11 15.3589 15.9213 15.6308C16.0626 15.7104 16.2187 15.7606 16.3801 15.7784C16.5416 15.7962 16.705 15.7812 16.8604 15.7343C17.1785 15.6375 17.4542 15.4369 17.6429 15.165C17.5022 15.0841 17.346 15.0331 17.1844 15.0153C17.0227 14.9974 16.8591 15.0132 16.7039 15.0615Z" fill="#209D59"/>
<path fill-rule="evenodd" clip-rule="evenodd" d="M17.5367 0L17.6655 0.245098C17.9707 0.825927 18.0527 1.49696 17.8964 2.13332C17.7408 2.77053 17.3472 3.3254 16.795 3.68579L16.5538 3.84324L16.4204 3.58923C16.1159 3.0097 16.0335 2.34037 16.1884 1.70529C16.2554 1.38416 16.3881 1.08008 16.5784 0.811875C16.7696 0.542357 17.0148 0.314863 17.2987 0.143617L17.5367 0ZM17.3248 0.761565C17.2042 0.863587 17.0967 0.980478 17.005 1.10969C16.8551 1.321 16.7508 1.56071 16.6985 1.81384L16.6976 1.81855L16.6964 1.82323C16.595 2.23567 16.6175 2.66615 16.7575 3.06264C17.0683 2.78506 17.2898 2.41937 17.3894 2.01151L17.3895 2.0111C17.4917 1.59515 17.468 1.16084 17.3248 0.761565ZM10.9001 0.148541C11.4519 0.508764 11.8454 1.06329 12.0012 1.70013C12.1612 2.337 12.0789 3.01007 11.7698 3.59048L11.6322 3.84894L11.3903 3.68209C10.8537 3.31201 10.4661 2.76573 10.2961 2.13971L10.2949 2.1351L10.2949 2.13509C10.1346 1.49795 10.2169 0.824534 10.526 0.243855L10.7567 0.36469L10.9001 0.148541ZM10.8613 0.770584C11.1727 1.0483 11.3947 1.41442 11.4944 1.82282L11.4948 1.82459C11.5979 2.23415 11.5765 2.66231 11.4373 3.05632C11.1321 2.77383 10.9106 2.4111 10.8005 2.00742C10.6974 1.59599 10.7199 1.16589 10.8613 0.770584ZM14.1841 0.190655C15.0972 1.18718 15.6048 2.48455 15.6083 3.83121L15.6083 3.83427L15.6083 3.83427C15.5957 5.19721 15.1 6.51194 14.2087 7.5484L14.2948 7.64975C14.8268 8.27537 15.1248 9.06386 15.1388 9.88217L15.1389 9.88776H15.1388C15.1349 10.71 14.8348 11.5037 14.2928 12.1257L14.0993 12.3477L13.9015 12.1295C13.3433 11.5139 13.0399 10.7119 13.0521 9.88397C13.0563 9.07123 13.3498 8.28639 13.8804 7.66782L13.7968 7.57521C12.8805 6.56042 12.3738 5.24597 12.3738 3.88364C12.3738 2.5213 12.8805 1.20685 13.7968 0.192057L13.9911 0.36469L14.1841 0.190655ZM13.9925 0.764157C14.6956 1.63131 15.0833 2.71233 15.0866 3.83102C15.0756 4.97924 14.6883 6.08983 13.9875 6.99696C13.2822 6.11326 12.8955 5.01672 12.8955 3.88364C12.8955 2.74792 13.284 1.64892 13.9925 0.764157ZM20.4677 1.35991L20.5527 1.63409C20.9535 2.92652 20.856 4.32057 20.2789 5.54564L20.2769 5.54988L20.2769 5.54986C19.6812 6.7572 18.6748 7.71709 17.4353 8.26025L17.1668 8.37788L17.0805 8.09965C16.6797 6.80722 16.7773 5.41317 17.3544 4.1881L17.5907 4.29763L17.3548 4.18728C17.9353 2.96605 18.9486 1.99951 20.2015 1.47199L20.4677 1.35991ZM17.827 4.40728C17.3477 5.42485 17.2339 6.57122 17.4988 7.6571C18.4992 7.14792 19.3102 6.33081 19.8073 5.32446C20.2864 4.30607 20.3995 3.15884 20.1335 2.07243C19.1243 2.56969 18.3102 3.39112 17.827 4.40728ZM8.04151 1.47199C9.29443 1.99951 10.3078 2.96605 10.8883 4.18728L10.8885 4.18776C11.4676 5.41255 11.5652 6.80757 11.1624 8.1L11.0783 8.36969L10.8148 8.2632C9.54901 7.75176 8.52876 6.7789 7.96359 5.54451C7.38514 4.32007 7.28772 2.92565 7.6904 1.63374L7.9396 1.71017L8.04151 1.47199ZM8.10919 2.07224C7.84149 3.15926 7.9551 4.3078 8.4366 5.32624L8.43799 5.32918L8.43797 5.32919C8.90721 6.3549 9.7246 7.18064 10.7426 7.66564C11.0116 6.57751 10.8983 5.42747 10.4163 4.40781C9.93308 3.39128 9.11875 2.56957 8.10919 2.07224ZM23.2946 2.43354L23.3275 2.7154C23.4028 3.36111 23.239 4.01196 22.8666 4.54676C22.5015 5.08623 21.9357 5.46012 21.2932 5.58642L21.0159 5.64093L20.9833 5.36236C20.9079 4.71602 21.0721 4.06453 21.4453 3.52943C21.8147 2.99657 22.3766 2.62508 23.0146 2.49195L23.2946 2.43354ZM21.6598 3.67664L21.8743 3.82384C21.6323 4.17089 21.4992 4.57862 21.4879 4.99609C21.8715 4.85573 22.2038 4.59831 22.4343 4.25708L22.4365 4.2539L22.4365 4.25392C22.6778 3.90785 22.8108 3.50145 22.8228 3.08521C22.4407 3.22878 22.109 3.48514 21.8748 3.82319L21.6598 3.67664ZM5.12788 2.44103C5.7654 2.584 6.32632 2.95752 6.70114 3.48868C7.07596 4.01984 7.23777 4.6705 7.15498 5.31364L7.11917 5.59179L6.84254 5.53407C6.20441 5.40091 5.64239 5.02929 5.27296 4.49626C4.89995 3.96122 4.73584 3.30987 4.81125 2.66365L5.07036 2.6934L5.12788 2.44103ZM5.31603 3.03805C5.32883 3.45269 5.46176 3.85737 5.70222 4.20217L5.70267 4.20282C5.93757 4.54186 6.27052 4.79874 6.65406 4.94206C6.64582 4.52992 6.5147 4.12688 6.27376 3.78544C6.03441 3.44625 5.70037 3.18727 5.31603 3.03805ZM6.80438 6.48097C7.85059 7.34931 8.54829 8.56099 8.7708 9.89609L8.82003 10.1915L8.51823 10.197C7.79963 10.2101 7.0909 10.0899 6.42645 9.84835C6.52953 9.94601 6.62043 10.0561 6.69692 10.1762C6.82341 10.3749 6.90787 10.597 6.94516 10.829L6.98682 11.0884L6.72483 11.1259C6.48692 11.1599 6.24449 11.1451 6.01258 11.0824C5.94428 11.0639 5.87732 11.0414 5.81205 11.015C6.40884 11.414 6.92459 11.9308 7.32364 12.54L7.48588 12.7877L7.21698 12.9146C5.97487 13.5009 4.56452 13.6352 3.23269 13.2941C1.90229 12.9671 0.746776 12.1509 0 11.0107L0.218728 10.8698L0.101569 10.6386C1.33783 10.0221 2.76168 9.88615 4.09371 10.2574C4.52632 10.3639 4.94042 10.5222 5.32795 10.7266C5.16041 10.6009 5.01691 10.4462 4.90451 10.2696C4.77801 10.0709 4.69355 9.84883 4.65627 9.61678L4.6132 9.34877L4.88512 9.31888C5.04071 9.30177 5.19654 9.30415 5.3492 9.32508C5.14081 9.19564 4.94003 9.05253 4.74826 8.89623L4.74655 8.89482C3.69941 8.02638 3.00108 6.81412 2.77846 5.47831L3.0358 5.43611L3.02445 5.17761C4.40592 5.11788 5.75815 5.58416 6.80438 6.48097ZM3.35173 5.69084C3.60178 6.7861 4.20765 7.77304 5.08029 8.49708C5.96419 9.21719 7.0586 9.62946 8.19579 9.67603C7.94461 8.58341 7.3392 7.59905 6.46809 6.8766L6.46475 6.87383L6.46478 6.8738C5.59606 6.12856 4.49367 5.71191 3.35173 5.69084ZM0.609517 10.9746C1.28347 11.8764 2.25472 12.5208 3.35932 12.7921L3.36191 12.7927L3.36191 12.7927C4.47562 13.0782 5.64967 12.9988 6.71018 12.5709C6.03638 11.6719 5.06677 11.0294 3.96432 10.7587L3.96027 10.7577L3.95626 10.7566C2.84557 10.4462 1.66417 10.5251 0.609517 10.9746ZM21.4393 6.48041C22.4893 5.59169 23.8376 5.12667 25.2169 5.17754L25.5129 5.18846L25.4646 5.47831C25.242 6.8137 24.5441 8.02561 23.4975 8.894C23.3184 9.04558 23.1306 9.18484 22.9355 9.31132C23.0786 9.29665 23.2233 9.29946 23.3664 9.31995L23.6591 9.36185L23.5807 9.64465C23.4611 10.0761 23.215 10.4626 22.8737 10.7551L22.8607 10.7662L22.8464 10.7755C22.4605 11.0272 22.004 11.1507 21.5427 11.1282L21.2177 11.1124L21.304 10.8012C21.4014 10.4496 21.5829 10.1278 21.8315 9.86248C21.1621 10.1077 20.4453 10.2236 19.7199 10.1969L19.4239 10.1859L19.4722 9.89609C19.6948 8.5607 20.3927 7.34879 21.4393 6.48041ZM21.6076 6.67809L21.7749 6.8766C20.9023 7.6003 20.2963 8.5868 20.0459 9.68167C21.1868 9.6541 22.2872 9.23851 23.1598 8.49952L23.1619 8.4978C24.0345 7.77411 24.6405 6.7876 24.8909 5.69273C23.75 5.72031 22.6496 6.1359 21.777 6.87488L21.6076 6.67809ZM22.0765 9.76602L22.1815 9.88654L22.0821 9.76365C22.0803 9.76444 22.0784 9.76523 22.0765 9.76602ZM22.3483 10.0855C22.1839 10.2272 22.0483 10.3973 21.9475 10.5865C22.1592 10.5481 22.3626 10.469 22.5456 10.3523C22.7141 10.205 22.8518 10.0276 22.9522 9.83041C22.8981 9.8376 22.8444 9.84837 22.7915 9.86268C22.63 9.90636 22.4793 9.98217 22.3483 10.0855ZM15.9437 5.46423L16.1248 5.68824C16.2752 5.87427 16.3854 6.08897 16.4487 6.31902C16.5112 6.54636 16.5265 6.78389 16.4937 7.01722C16.4548 7.48028 16.2368 7.91058 15.885 8.21778L15.68 8.39681L15.5091 8.18543C15.3588 7.9994 15.2485 7.7847 15.1853 7.55466C15.1221 7.32489 15.1072 7.08471 15.1413 6.84899C15.2036 6.40033 15.4133 5.98456 15.7379 5.66612L15.9437 5.46423ZM15.3996 6.88509L15.6578 6.92205C15.6337 7.08788 15.6442 7.25685 15.6886 7.4185C15.7051 7.47839 15.7261 7.53679 15.7513 7.59325C15.8786 7.40945 15.9564 7.19426 15.9743 6.96833L15.9749 6.95995L15.9762 6.95162C16.0003 6.7858 15.9898 6.61682 15.9454 6.45518C15.9305 6.40115 15.912 6.34833 15.8899 6.29707C15.7686 6.48447 15.6889 6.69692 15.6581 6.92024L15.3996 6.88509ZM12.453 5.66612C12.7778 5.98479 12.9876 6.40092 13.0497 6.84994L13.0506 6.85687L13.0512 6.86384C13.0898 7.32853 12.9624 7.79189 12.6913 8.1728L12.5137 8.4223L12.2948 8.20756C11.9699 7.88889 11.7602 7.47275 11.6981 7.02374L11.6972 7.01681L11.6966 7.00984C11.658 6.54514 11.7854 6.08178 12.0565 5.70088L12.2696 5.8501L12.453 5.66612ZM12.5318 6.9133C12.5013 6.69941 12.4259 6.49565 12.3121 6.31451C12.2321 6.51855 12.1986 6.73918 12.2159 6.96038C12.2465 7.17426 12.3219 7.37802 12.4357 7.55917C12.5156 7.35512 12.5491 7.1345 12.5318 6.9133ZM19.9958 6.86395L20.0398 7.15755C20.1069 7.60585 20.023 8.0636 19.8011 8.45975L19.7978 8.46561L19.7977 8.46557C19.5552 8.87326 19.1653 9.17408 18.7072 9.30691L18.42 9.39019L18.376 9.09659C18.3089 8.64829 18.3928 8.19054 18.6147 7.79439L18.8427 7.92007L18.6181 7.78857C18.8606 7.38088 19.2505 7.08006 19.7086 6.94723L19.9958 6.86395ZM19.0691 8.04869C18.9615 8.24169 18.8976 8.45411 18.8801 8.67132C19.0706 8.55754 19.2315 8.3981 19.3467 8.20545C19.4543 8.01245 19.5182 7.80003 19.5357 7.58282C19.3452 7.6966 19.1843 7.85604 19.0691 8.04869ZM8.49193 6.95023C8.93516 7.09744 9.31454 7.39015 9.56748 7.78005L9.57205 7.78708L9.57614 7.79439C9.79807 8.19054 9.88197 8.64829 9.81482 9.09659L9.77084 9.39019L9.48362 9.30691C9.02557 9.17408 8.63568 8.87326 8.39314 8.46557L8.38971 8.45979L8.38979 8.45975C8.16785 8.0636 8.08395 7.60585 8.15111 7.15755L8.40911 7.19558L8.49193 6.95023ZM8.65632 7.59605C8.67532 7.80866 8.73877 8.01637 8.84415 8.20545C8.95941 8.3981 9.1203 8.55754 9.31073 8.67132C9.29336 8.45575 9.23031 8.2449 9.12421 8.05307C9.00258 7.86784 8.84255 7.71236 8.65632 7.59605ZM1.10862 7.45896C1.74913 7.33709 2.41241 7.46035 2.96501 7.80393C3.52009 8.14453 3.93082 8.67436 4.12012 9.29401L4.20511 9.5722L3.91671 9.6237C3.27523 9.73827 2.61368 9.61426 2.05857 9.2754C1.50346 8.93653 1.09374 8.40659 0.907757 7.7869L1.15775 7.71308L1.10862 7.45896ZM1.52003 7.93196C1.69513 8.30296 1.97641 8.61762 2.33198 8.83467C2.68608 9.05083 3.09412 9.15813 3.50517 9.14702C3.32781 8.77631 3.04567 8.46176 2.68998 8.24366L2.68853 8.24277C2.33719 8.02416 1.92972 7.91722 1.52003 7.93196ZM25.1765 7.80219C25.7308 7.46951 26.3878 7.34731 27.026 7.45821L27.316 7.50861L27.2306 7.78812C27.0412 8.40804 26.6302 8.93805 26.0747 9.27865L26.0744 9.27887C25.5208 9.61704 24.8606 9.73983 24.2212 9.62356L23.9339 9.57131L24.0186 9.29401C24.208 8.67409 24.619 8.14407 25.1744 7.80348L25.3116 8.02357L25.1765 7.80219ZM25.4477 8.24428C25.0922 8.46253 24.8103 8.77717 24.6331 9.14791C25.042 9.15989 25.4482 9.05357 25.8004 8.83846C26.1557 8.62062 26.4376 8.30656 26.615 7.93643C26.2065 7.92677 25.8012 8.0324 25.4477 8.24428ZM14.0932 8.24214C13.759 8.7245 13.5766 9.2975 13.5737 9.88776L13.5737 9.89041L13.5737 9.8904C13.5648 10.4834 13.748 11.0607 14.0919 11.5392C14.4293 11.0559 14.6137 10.4808 14.6171 9.88813C14.6065 9.29851 14.4233 8.72712 14.0932 8.24214ZM17.9611 8.29498L18.048 8.56619C18.3032 9.36297 18.2427 10.2263 17.8787 10.9803C17.5233 11.7348 16.9001 12.3328 16.1282 12.6602L15.9077 12.7536C15.9738 12.9355 16.0023 13.1286 15.9915 13.3217C15.9809 13.5114 15.9325 13.697 15.8492 13.868C15.8458 13.8775 15.8423 13.887 15.8386 13.8964C15.845 13.8909 15.8515 13.8854 15.8581 13.8799L16.0257 14.0782L15.864 13.8752C16.1787 13.6287 16.5704 13.4991 16.9712 13.5091L17.2292 13.5155C17.3367 12.6847 17.7608 11.9261 18.4146 11.3957C19.0585 10.8504 19.8881 10.5698 20.7337 10.6113L21.0143 10.6251L20.9796 10.9017C20.8748 11.7386 20.4488 12.5033 19.7902 13.0367L19.7884 13.0381C19.135 13.5577 18.319 13.8341 17.4818 13.8194L17.2213 13.8149C17.1604 14.1973 16.962 14.5452 16.6627 14.794L16.655 14.8005L16.6468 14.8063C16.6452 14.8074 16.6436 14.8085 16.642 14.8096C16.8269 14.7545 17.0211 14.7369 17.2131 14.758C17.4108 14.7798 17.6017 14.8422 17.7737 14.9411L18.0175 15.0814L17.8577 15.3117C17.6357 15.6316 17.3112 15.8677 16.9368 15.9816L16.9363 15.9817C16.747 16.0389 16.5479 16.0572 16.3513 16.0355C16.1546 16.0138 15.9645 15.9526 15.7924 15.8557L15.5453 15.7163L15.7064 15.484C15.8164 15.3255 15.9515 15.1876 16.1054 15.0749C15.9305 15.13 15.7477 15.1606 15.5622 15.1649L15.2513 15.1721L15.2983 14.8671C15.3196 14.7287 15.3589 14.5947 15.4145 14.4682C15.295 14.562 15.1601 14.6355 15.0152 14.6851L14.7732 14.7679L14.6852 14.5294C14.6174 14.3457 14.5881 14.1503 14.5991 13.955C14.6002 13.9354 14.6017 13.9159 14.6036 13.8963C14.5304 14.081 14.4252 14.2531 14.2914 14.4042L14.1198 14.5981L13.9239 14.4284C13.7716 14.2965 13.6515 14.1321 13.5726 13.9476C13.5841 14.136 13.564 14.3263 13.5119 14.5104L13.4234 14.8229L13.136 14.6677C13.025 14.6077 12.9206 14.5375 12.8241 14.4583C12.882 14.5877 12.9229 14.7251 12.9447 14.8671L12.9895 15.1576L12.6934 15.1649C12.5137 15.1693 12.3359 15.1458 12.166 15.0962C12.3082 15.2048 12.4334 15.3353 12.5366 15.484L12.7021 15.7225L12.4446 15.8589C12.0805 16.0519 11.6549 16.0963 11.2582 15.9828L11.2541 15.9816L11.2541 15.9816C10.8797 15.8677 10.5551 15.6316 10.3331 15.3117L10.548 15.165L10.4233 14.9377C10.6037 14.8403 10.8017 14.7792 11.0059 14.7579C11.2055 14.737 11.4073 14.7546 11.6001 14.8096C11.5955 14.806 11.5908 14.8024 11.5862 14.7988L11.5832 14.7964L11.5803 14.794C11.2789 14.5434 11.0799 14.1925 11.0205 13.8068L10.7696 13.8192C9.92327 13.8607 9.093 13.5796 8.44893 13.0335C7.80339 12.4931 7.38146 11.7355 7.26395 10.9058L7.52226 10.8698L7.50936 10.6113C8.35567 10.5698 9.18593 10.8509 9.83 11.397C10.4755 11.9374 10.8975 12.695 11.015 13.5247L11.0542 13.8017L11.2784 13.7677V13.509C11.6557 13.509 12.0233 13.625 12.331 13.8403C12.1972 13.4975 12.1789 13.1206 12.2793 12.7663L12.5304 12.8362L12.6155 12.5917C12.81 12.6582 12.9866 12.7678 13.1321 12.9121C13.2759 13.0548 13.3855 13.2277 13.4529 13.4181C13.4577 13.43 13.4623 13.4419 13.4668 13.4539C13.4661 13.4148 13.4672 13.3757 13.47 13.3366C13.4937 12.9545 13.6448 12.591 13.8994 12.3033L14.0954 12.474L14.3036 12.3181C14.5264 12.6109 14.6695 12.9555 14.7191 13.319L14.7225 13.3441L14.721 13.3694C14.7188 13.4047 14.7156 13.4398 14.7113 13.4747C14.7226 13.4481 14.7347 13.4219 14.7476 13.3961C14.9143 13.0476 15.1974 12.7672 15.549 12.6023L15.7756 12.4961C15.522 11.7005 15.583 10.8391 15.9463 10.0865C16.301 9.33139 16.9245 8.73303 17.6971 8.40652L17.9611 8.29498ZM16.1822 10.197L16.4174 10.3089C16.1545 10.8528 16.0791 11.4643 16.1978 12.0504C16.7249 11.7581 17.1489 11.3077 17.4065 10.7603L17.4076 10.7579L17.4077 10.7579C17.6706 10.2139 17.7459 9.60223 17.6272 9.01605C17.0997 9.30792 16.6756 9.7584 16.4186 10.3062L16.1822 10.197ZM14.9823 13.509L15.2158 13.6243C15.1596 13.7364 15.1269 13.8587 15.1199 13.9838C15.1189 14.0024 15.1184 14.021 15.1185 14.0396C15.1338 14.0265 15.1486 14.0129 15.1629 13.9987C15.2525 13.9099 15.3204 13.802 15.3617 13.6833L15.3673 13.6675L15.3748 13.6525C15.431 13.5403 15.4637 13.418 15.4707 13.293C15.471 13.2865 15.4713 13.28 15.4715 13.2735C15.3668 13.3714 15.2805 13.4886 15.2181 13.6196L14.9823 13.509ZM14.0856 12.9694C14.0315 13.0956 13.9991 13.2307 13.9906 13.3694L13.9904 13.3723L13.9904 13.3723C13.9814 13.497 14.0016 13.6221 14.0496 13.7377C14.0581 13.7582 14.0675 13.7783 14.0776 13.798C14.1446 13.6626 14.186 13.5151 14.1985 13.3631C14.1777 13.2272 14.1397 13.0949 14.0856 12.9694ZM12.7374 13.2535C12.7406 13.3908 12.7678 13.5274 12.8189 13.657C12.8822 13.7696 12.9604 13.8726 13.0509 13.9634C13.0418 13.8415 13.0137 13.7209 12.9668 13.6061L12.9642 13.5998L12.962 13.5934C12.9207 13.4747 12.8527 13.3668 12.7632 13.278C12.7548 13.2697 12.7461 13.2615 12.7374 13.2535ZM11.6557 14.0818C11.7203 14.2003 11.8071 14.3067 11.9125 14.395C12.0328 14.4886 12.1692 14.5578 12.3137 14.5999C12.2492 14.4792 12.1618 14.3708 12.0552 14.281C11.9338 14.1917 11.7985 14.1246 11.6557 14.0818ZM7.83847 11.1296C7.98577 11.7164 8.31603 12.2453 8.78595 12.6385L8.78733 12.6396C9.253 13.0347 9.83424 13.2653 10.4405 13.3009C10.2932 12.7141 9.9629 12.1852 9.49298 11.7921L9.49161 11.7909C9.02594 11.3958 8.44469 11.1652 7.83847 11.1296ZM11.0088 15.2792C11.126 15.3713 11.2601 15.4419 11.4049 15.4862C11.5537 15.5284 11.7085 15.5376 11.8588 15.5148C11.7419 15.4233 11.6082 15.3532 11.4639 15.3092C11.3331 15.2708 11.1961 15.2584 11.0605 15.2725C11.0432 15.2743 11.026 15.2766 11.0088 15.2792ZM16.6288 14.8188L16.7038 15.0615L16.6274 14.8198M17.1859 15.2762C17.1758 15.2748 17.1657 15.2735 17.1555 15.2724C17.0298 15.2585 16.9026 15.2708 16.7819 15.3083L16.7038 15.0615L16.7803 15.3088C16.634 15.3533 16.4987 15.4245 16.3806 15.5176C16.2644 15.5013 16.1523 15.4633 16.0502 15.4057L15.9213 15.6307L16.1362 15.7774C16.2047 15.6786 16.2872 15.5913 16.3806 15.5176C16.39 15.519 16.3994 15.5201 16.4089 15.5212C16.535 15.5351 16.6627 15.5234 16.7841 15.4867C16.784 15.4868 16.784 15.4868 16.7839 15.4868L16.8603 15.7342L16.7844 15.4867C16.7843 15.4867 16.7842 15.4867 16.7841 15.4867C16.9312 15.442 17.0673 15.3702 17.1859 15.2762ZM17.1859 15.2762C17.3007 15.2928 17.4115 15.331 17.512 15.3888L17.6429 15.165L17.428 15.0183C17.36 15.1162 17.2783 15.203 17.1859 15.2762ZM18.5819 11.5943L18.7468 11.7947C18.2722 12.1791 17.941 12.7062 17.8 13.292C18.4049 13.2419 18.9838 13.0144 19.4612 12.6351C19.9378 12.2487 20.2697 11.7185 20.4093 11.1294C19.8014 11.164 19.2183 11.3948 18.7514 11.7909L18.5819 11.5943ZM16.1903 14.2789C16.0871 14.3654 16.0017 14.4693 15.9375 14.5848C16.0787 14.5415 16.213 14.4763 16.3352 14.391C16.4408 14.3016 16.5274 14.1938 16.5915 14.0741C16.4469 14.1162 16.3106 14.1853 16.1903 14.2789ZM12.2998 10.0932C11.9599 9.32269 11.3278 8.71596 10.5403 8.40424L12.2998 10.0932ZM10.5403 8.40424L10.4437 8.64456L10.5403 8.40424ZM10.4437 8.64456L10.1925 8.57459C9.96745 9.36958 10.0271 10.2174 10.3613 10.9737L10.3637 10.9792L10.3664 10.9847C10.7361 11.7246 11.3516 12.3155 12.1093 12.6577L12.3862 12.7828L12.4685 12.4922C12.6936 11.6973 12.634 10.8495 12.2998 10.0933M10.6261 9.01412C11.1559 9.29691 11.5784 9.7487 11.8219 10.3008L11.822 10.3009C12.0641 10.8488 12.1377 11.4529 12.0374 12.0381C11.5229 11.7376 11.1048 11.2946 10.8366 10.7603C10.5944 10.2093 10.5225 9.60187 10.6261 9.01412ZM5.26079 9.83548C5.49276 9.86434 5.71517 9.95246 5.90517 10.0936L5.90942 10.0968L5.91379 10.0998C6.05073 10.1931 6.1671 10.3132 6.25584 10.4525C6.28984 10.5059 6.31951 10.5618 6.34465 10.6195C6.279 10.6126 6.21385 10.6005 6.14984 10.5831C5.98689 10.5391 5.83481 10.4622 5.70304 10.3574L5.69555 10.3515L5.68763 10.3461C5.55069 10.2527 5.43432 10.1327 5.34558 9.99329C5.31337 9.9427 5.28505 9.88995 5.26079 9.83548ZM24.1998 10.2578C25.5324 9.88876 26.9557 10.0244 28.1932 10.6384L28.4586 10.77L28.2929 11.0142C27.5315 12.1364 26.3853 12.9461 25.0673 13.2929C23.7347 13.6648 22.31 13.529 21.0731 12.9122L20.8085 12.7802L20.9739 12.5365C21.7353 11.4143 22.8817 10.6045 24.1998 10.2578ZM24.2682 10.5075L24.335 10.7577C23.2376 11.0459 22.2714 11.6879 21.5856 12.5781C22.6391 13.0259 23.8187 13.1042 24.9278 12.7942L24.9318 12.7931L24.9318 12.7931C26.0289 12.5049 26.9951 11.8631 27.6808 10.9731C26.6267 10.5274 25.4478 10.4491 24.3384 10.7567L24.2682 10.5075ZM20.1332 13.6209C20.9415 13.411 21.7984 13.4901 22.5538 13.8443L22.8263 13.9721L22.6597 14.2212C22.1968 14.9137 21.4927 15.4125 20.6823 15.6223C19.8741 15.8322 19.0171 15.7531 18.2617 15.3989L17.9892 15.2711L18.1558 15.0219C18.6188 14.3295 19.3228 13.8307 20.1332 13.6209ZM20.1991 13.8712L20.265 14.1216C19.6831 14.2723 19.166 14.5989 18.7832 15.0522C19.3499 15.2481 19.9651 15.2736 20.5504 15.1216L20.5506 15.1216C21.1325 14.9709 21.6496 14.6443 22.0324 14.191C21.4656 13.9951 20.8504 13.9696 20.2652 14.1215L20.1991 13.8712ZM5.69 13.8439C6.44564 13.4926 7.30117 13.4136 8.10919 13.6207L8.10981 13.6209C8.92024 13.8307 9.62425 14.3295 10.0872 15.0219L10.2538 15.2711L9.98129 15.3989C9.22593 15.7531 8.36898 15.8322 7.56072 15.6223C6.75029 15.4125 6.04628 14.9137 5.58333 14.2212L5.4162 13.9713L5.69 13.8439ZM6.21131 14.1918C6.59405 14.6447 7.1109 14.971 7.69247 15.1216L7.69265 15.1216C8.27793 15.2736 8.89312 15.2481 9.45988 15.0522C9.07715 14.599 8.56016 14.2724 7.97839 14.1217C7.39294 13.9717 6.77833 13.9974 6.21131 14.1918ZM3.91958 13.7723C3.27809 13.6453 2.61187 13.7695 2.06064 14.119L2.20111 14.337L1.99508 14.4957C2.3952 15.0069 2.97106 15.354 3.61273 15.4708C4.25422 15.5979 4.92044 15.4737 5.47168 15.1242L5.71254 14.9715L5.53723 14.7475C5.13711 14.2363 4.56125 13.8892 3.91958 13.7723ZM2.61682 14.409C2.91672 14.6939 3.29579 14.8873 3.7087 14.9622L3.71315 14.963L3.71314 14.963C4.12018 15.044 4.53985 14.9976 4.91549 14.8342C4.61559 14.5493 4.23652 14.3558 3.82361 14.281L3.81917 14.2802L3.81918 14.2802C3.41213 14.1991 2.99247 14.2456 2.61682 14.409ZM24.2771 13.7712C24.9168 13.646 25.5807 13.7705 26.1302 14.119L26.3602 14.2648L26.2029 14.4861C26.0128 14.7535 25.7692 14.9792 25.4872 15.149C25.2072 15.3176 24.8955 15.4276 24.5712 15.4721C23.9325 15.5918 23.2718 15.4681 22.7211 15.1254L22.4878 14.9803L22.6465 14.7571C22.8366 14.4897 23.0803 14.264 23.3622 14.0942C23.6419 13.9258 23.9532 13.8159 24.2771 13.7712ZM25.5867 14.4145C25.2078 14.2467 24.7833 14.1982 24.3717 14.2802L24.3636 14.2818L24.3554 14.2829C24.0996 14.3173 23.8537 14.4036 23.633 14.5365C23.498 14.6178 23.3743 14.7154 23.2645 14.8269C23.6443 14.9923 24.068 15.041 24.4799 14.9626L24.4869 14.9613L24.494 14.9603C24.7498 14.9259 24.9958 14.8396 25.2164 14.7067C25.3521 14.625 25.4764 14.5267 25.5867 14.4145Z" fill="#209D59"/>
<path d="M15.3475 31.8282H11.8001C12.267 29.5977 12.5117 27.327 12.5304 25.049L12.6869 24.428C12.7947 23.9706 12.9341 23.521 13.1043 23.0826C13.2608 22.6686 13.4694 22.2546 13.626 21.8923C13.7825 21.5818 13.939 21.3231 14.0955 21.0643V21.1161C13.8868 22.6168 15.3475 31.8282 15.3475 31.8282ZM14.9823 19.5636C14.878 19.6671 14.7736 19.7189 14.6693 19.8224C14.4606 20.0294 14.1998 20.2881 13.939 20.5986C13.6666 20.9042 13.4222 21.2333 13.2086 21.5818C12.9519 21.9606 12.7252 22.3586 12.5304 22.7721C12.4783 22.8238 12.4783 22.9273 12.4261 22.9791C12.3503 22.1508 12.1203 21.3437 11.7479 20.5986C9.92202 17.1832 9.60901 16.9244 9.60901 16.9244L9.86985 16.7692C9.86985 16.7692 12.5304 18.7874 13.2086 18.7874C13.8868 18.7874 16.8604 17.2349 16.8604 17.2349L17.1734 17.4937C16.3882 18.1242 15.6555 18.8164 14.9823 19.5636Z" fill="#209D59"/>
<path fill-rule="evenodd" clip-rule="evenodd" d="M10.0283 16.5637L10.0356 16.5691L10.0575 16.5857C10.0769 16.6002 10.1055 16.6217 10.1422 16.649C10.2156 16.7037 10.3213 16.782 10.4505 16.8759C10.7089 17.064 11.0599 17.3143 11.4313 17.5642C11.8037 17.8147 12.1924 18.062 12.5271 18.2457C12.6947 18.3376 12.8441 18.411 12.9682 18.4608C13.0996 18.5135 13.1765 18.5287 13.2086 18.5287C13.2542 18.5287 13.345 18.5136 13.487 18.4724C13.6229 18.4329 13.7868 18.3752 13.9701 18.304C14.3363 18.1615 14.7655 17.9703 15.1774 17.7772C15.5886 17.5845 15.9792 17.3916 16.2672 17.2467C16.4111 17.1743 16.5293 17.114 16.6113 17.0719C16.6524 17.0508 16.6844 17.0343 16.7061 17.023L16.7307 17.0102L16.7384 17.0062L16.8933 16.9254L17.5843 17.4966L17.3375 17.6948C16.5632 18.3166 15.8407 18.9992 15.1768 19.7361L14.9823 19.5637L15.1668 19.7466C15.1014 19.8115 15.0367 19.8596 14.9861 19.8972L14.9823 19.9C14.9291 19.9397 14.8911 19.9684 14.8538 20.0054C14.7049 20.153 14.5337 20.3229 14.3563 20.5171V21.1339L14.3539 21.1515C14.3315 21.3126 14.3299 21.5989 14.3499 21.9943C14.3696 22.3839 14.409 22.8622 14.4626 23.3974C14.5698 24.4676 14.7323 25.7563 14.9017 27.0003C15.0711 28.2439 15.2469 29.441 15.3805 30.3272C15.4473 30.7703 15.5035 31.1356 15.543 31.3901C15.5627 31.5174 15.5783 31.6169 15.5889 31.6846L15.6051 31.7876C15.6051 31.7877 15.6052 31.788 15.3475 31.8282L15.6051 31.7876L15.6526 32.087H11.4795L11.5447 31.7756C12.0082 29.5617 12.251 27.308 12.2696 25.047L12.2699 25.0162L12.4334 24.3673C12.5438 23.8992 12.6864 23.4393 12.8604 22.9907C12.9644 22.7158 13.0953 22.4307 13.2145 22.1712C13.2768 22.0356 13.3358 21.907 13.3862 21.7904L13.3892 21.7835L13.3927 21.7767C13.3942 21.7736 13.3957 21.7706 13.3972 21.7676C13.1595 22.1229 12.9488 22.4953 12.7668 22.8816L12.7473 22.9229L12.7325 22.9376C12.7309 22.9421 12.7287 22.9485 12.7257 22.9574L12.7247 22.9604C12.7188 22.978 12.7085 23.0088 12.6945 23.0393C12.6792 23.0727 12.6538 23.1192 12.6105 23.1621L12.2167 23.5528L12.1663 23.0025C12.0936 22.2073 11.873 21.4323 11.5158 20.7167C10.605 19.0132 10.0739 18.1012 9.77192 17.6168C9.62081 17.3745 9.52879 17.2419 9.47675 17.1721C9.45253 17.1396 9.43799 17.1221 9.43111 17.1142L9.15991 16.89L9.88758 16.4569L10.0283 16.5637ZM10.2179 17.3483C10.5291 17.8478 11.0665 18.7717 11.9784 20.4774L11.9817 20.4837C12.2448 21.0101 12.4394 21.5664 12.5617 22.1391C12.6935 21.9008 12.836 21.6683 12.9888 21.4424C13.2091 21.0837 13.4608 20.7449 13.741 20.4301C14.0086 20.1119 14.2754 19.8473 14.4828 19.6415L14.4849 19.6394C14.5503 19.5746 14.615 19.5264 14.6655 19.4889L14.6693 19.486C14.7204 19.4481 14.7573 19.4202 14.7931 19.3854C15.3318 18.788 15.9079 18.2254 16.5181 17.7008C16.5131 17.7033 16.5081 17.7058 16.5031 17.7083C16.2124 17.8545 15.8172 18.0497 15.4002 18.2451C14.984 18.4402 14.5427 18.6371 14.1605 18.7857C13.9697 18.86 13.79 18.9236 13.6335 18.969C13.483 19.0127 13.3326 19.0462 13.2086 19.0462C13.0712 19.0462 12.9166 18.9983 12.7727 18.9406C12.6215 18.88 12.4518 18.7957 12.2746 18.6985C11.9197 18.5037 11.5161 18.2465 11.1385 17.9924C10.7955 17.7617 10.4706 17.5312 10.2179 17.3483ZM13.8316 22.0724C13.7816 22.1855 13.7295 22.2988 13.677 22.413C13.563 22.6607 13.4472 22.9123 13.3485 23.1735L13.3477 23.1755C13.1819 23.6029 13.046 24.0411 12.9409 24.487L12.94 24.4908L12.791 25.082C12.7711 27.2607 12.5462 29.4327 12.1192 31.5695H15.043C15.0381 31.5382 15.0329 31.5046 15.0274 31.4688C14.9878 31.2137 14.9315 30.8477 14.8646 30.4038C14.7308 29.516 14.5545 28.3164 14.3848 27.0696C14.215 25.8232 14.0516 24.5276 13.9435 23.4486C13.8918 22.9324 13.8526 22.4636 13.8316 22.0724Z" fill="#209D59"/>
</svg>
